<svg width="240" height="234" viewBox="0 0 240 234" fill="none" xmlns="http://www.w3.org/2000/svg">
<g clip-path="url(#clip0_1_24)">
<path d="M197.5 1.00002L197.501 1.00002C202.952 0.994881 208.351 2.06478 213.388 4.14848C218.425 6.23218 223.002 9.28879 226.857 13.1434C230.711 16.9979 233.768 21.5748 235.852 26.612C237.935 31.6492 239.005 37.0479 239 42.4991V42.5V191.5V191.501C239.005 196.952 237.935 202.351 235.852 207.388C233.768 212.425 230.711 217.002 226.857 220.857C223.002 224.711 218.425 227.768 213.388 229.852C208.351 231.935 202.952 233.005 197.501 233H197.5H42.5H42.4991C37.0479 233.005 31.6492 231.935 26.612 229.852C21.5748 227.768 16.9979 224.711 13.1434 220.857C9.28879 217.002 6.23218 212.425 4.14848 207.388C2.06478 202.351 0.994881 196.952 1.00002 191.501V191.5L1.00002 42.5L1.00002 42.4991C0.994881 37.0479 2.06478 31.6492 4.14848 26.612C6.23218 21.5748 9.28879 16.9979 13.1434 13.1434C16.9979 9.28879 21.5748 6.23218 26.612 4.14848C31.6492 2.06478 37.0479 0.994881 42.4991 1.00002H42.5L197.5 1.00002Z" fill="#000B1D" stroke="#0C1E3C" stroke-width="2"/>
<path d="M199.619 97.2358L119.81 188.869L40 97.2358" fill="#EC6C00"/>
<path d="M164.902 50.9265L199.619 97.1708H167.296L119.81 188.869L72.3229 97.1708H40L74.7172 50.9265" fill="#FFAE00"/>
<path d="M119.81 46L164.72 50.7661L167.104 97.2358H72.515L74.8996 50.7661" fill="#FED305"/>
<path d="M119.81 46L167.104 97.2358H72.515" fill="#FFEFB4"/>
</g>
<defs>
<clipPath id="clip0_1_24">
<rect width="240" height="234" fill="white"/>
</clipPath>
</defs>
</svg>
