<svg width="240" height="234" viewBox="0 0 240 234" fill="none" xmlns="http://www.w3.org/2000/svg">
<g clip-path="url(#clip0_1_32)">
<path d="M42.5 1.88608e-05H197.5C203.083 -0.00524284 208.612 1.09046 213.77 3.22442C218.929 5.35838 223.616 8.48871 227.564 12.4362C231.511 16.3838 234.642 21.071 236.776 26.2297C238.91 31.3885 240.005 36.9174 240 42.5V191.5C240.005 197.083 238.91 202.612 236.776 207.77C234.642 212.929 231.511 217.616 227.564 221.564C223.616 225.511 218.929 228.642 213.77 230.776C208.612 232.91 203.083 234.005 197.5 234H42.5C36.9174 234.005 31.3885 232.91 26.2297 230.776C21.071 228.642 16.3838 225.511 12.4362 221.564C8.48871 217.616 5.35838 212.929 3.22442 207.77C1.09046 202.612 -0.00524284 197.083 1.88608e-05 191.5V42.5C-0.00524284 36.9174 1.09046 31.3885 3.22442 26.2297C5.35838 21.071 8.48871 16.3838 12.4362 12.4362C16.3838 8.48871 21.071 5.35838 26.2297 3.22442C31.3885 1.09046 36.9174 -0.00524284 42.5 1.88608e-05Z" fill="#FF4785"/>
<path fill-rule="evenodd" clip-rule="evenodd" d="M184.067 -2L161.852 -0.618663L160.771 25.4771C160.758 25.8036 160.838 26.1272 161.001 26.4102C161.164 26.6932 161.404 26.9241 161.693 27.076C161.982 27.2279 162.308 27.2946 162.634 27.2683C162.959 27.242 163.27 27.1238 163.531 26.9275L173.65 19.2381L182.205 25.9836C182.463 26.1883 182.774 26.3146 183.102 26.3477C183.43 26.3808 183.76 26.3192 184.054 26.1703C184.348 26.0214 184.593 25.7913 184.761 25.5073C184.928 25.2233 185.011 24.8973 184.999 24.5677L184.067 -2ZM166.774 85.3696C162.715 88.5351 132.404 90.6877 132.404 86.1869C133.048 69.0007 125.367 68.2525 121.09 68.2525C117.042 68.2525 110.212 69.4727 110.212 78.6816C110.212 88.0632 120.193 93.3583 131.91 99.5743C148.548 108.403 168.705 119.097 168.705 145.987C168.705 171.772 147.778 186 121.101 186C93.5622 186 69.4957 174.846 72.2094 136.18C73.2787 131.644 108.292 132.726 108.292 136.18C107.855 152.134 111.489 156.831 120.664 156.831C127.713 156.831 130.91 152.94 130.91 146.402C130.91 136.491 120.515 130.643 108.545 123.92C92.3434 114.815 73.2787 104.098 73.2787 79.4989C73.2787 54.9571 90.1357 38.5883 120.239 38.5883C150.342 38.5883 166.774 54.7039 166.774 85.3696Z" fill="white"/>
</g>
<defs>
<clipPath id="clip0_1_32">
<rect width="240" height="234" fill="white"/>
</clipPath>
</defs>
</svg>
