<svg width="240" height="234" viewBox="0 0 240 234" fill="none" xmlns="http://www.w3.org/2000/svg">
<g clip-path="url(#clip0_5_58)">
<path d="M197.5 0.999989L197.501 0.999988C202.952 0.99485 208.351 2.06475 213.388 4.14845C218.425 6.23215 223.002 9.28876 226.857 13.1433C230.711 16.9979 233.768 21.5748 235.852 26.612C237.935 31.6492 239.005 37.0479 239 42.499V42.5V191.5V191.501C239.005 196.952 237.935 202.351 235.852 207.388C233.768 212.425 230.711 217.002 226.857 220.857C223.002 224.711 218.425 227.768 213.388 229.852C208.351 231.935 202.952 233.005 197.501 233H197.5H42.5H42.4991C37.0479 233.005 31.6492 231.935 26.612 229.852C21.5748 227.768 16.9979 224.711 13.1434 220.857C9.28879 217.002 6.23218 212.425 4.14848 207.388C2.06478 202.351 0.994881 196.952 1.00002 191.501V191.5L1.00002 42.5L1.00002 42.499C0.994881 37.0479 2.06478 31.6492 4.14848 26.612C6.23218 21.5748 9.28879 16.9979 13.1434 13.1433C16.9979 9.28876 21.5748 6.23215 26.612 4.14845C31.6492 2.06475 37.0479 0.99485 42.4991 0.999988H42.5L197.5 0.999989Z" fill="#000B1D" stroke="#0C1E3C" stroke-width="2"/>
<path d="M95 192C108.807 192 120 180.807 120 167V142H95C81.1929 142 70 153.193 70 167C70 180.807 81.1929 192 95 192Z" fill="#0ACF83"/>
<path d="M70 117C70 103.193 81.1929 92 95 92H120V142H95C81.1929 142 70 130.807 70 117Z" fill="#A259FF"/>
<path d="M70 67C70 53.1929 81.1929 42 95 42H120V92H95C81.1929 92 70 80.8071 70 67Z" fill="#F24E1E"/>
<path d="M120 42H145C158.807 42 170 53.1929 170 67C170 80.8071 158.807 92 145 92H120V42Z" fill="#FF7262"/>
<path d="M170 117C170 130.807 158.807 142 145 142C131.193 142 120 130.807 120 117C120 103.193 131.193 92 145 92C158.807 92 170 103.193 170 117Z" fill="#1ABCFE"/>
</g>
<defs>
<clipPath id="clip0_5_58">
<rect width="240" height="234" fill="white"/>
</clipPath>
</defs>
</svg>
