<?xml version="1.0" encoding="utf-8"?>
<!-- Generator: Adobe Illustrator 23.0.6, SVG Export Plug-In . SVG Version: 6.00 Build 0)  -->
<svg version="1.1" id="Layer_1" xmlns="http://www.w3.org/2000/svg" xmlns:xlink="http://www.w3.org/1999/xlink" x="0px" y="0px"
	 viewBox="0 0 205 14" style="enable-background:new 0 0 205 14;" xml:space="preserve">
<style type="text/css">
	.st0{fill:#FFFFFF;}
	.st1{fill:#F6EB3B;}
</style>
<g id="LOGOS_x2F_fm-white">
	<polyline id="Fill-1" class="st0" points="12.1,2.3 2,2.3 2,5.5 9,5.5 9,7.4 2,7.4 2,12.9 0,12.9 0,0.4 12.1,0.4 12.1,2.3 	"/>
	<polygon id="Fill-2" class="st0" points="18.5,12.9 20.5,12.9 20.5,0.4 18.5,0.4 	"/>
	<path id="Fill-3" class="st0" d="M37.4,6.3c1.5,0,2.3-0.6,2.3-1.9c0-1.4-0.8-2.1-2.5-2.1H31v4H37.4z M41.8,12.9h-2.3l-3.2-4.8H31
		v4.8h-2V0.4h8.7c1.3,0,2.2,0.4,3,1.1c0.7,0.7,1.1,1.7,1.1,2.9c0,1.1-0.3,1.9-0.9,2.6c-0.5,0.6-1.3,1-2.2,1.1L41.8,12.9z"/>
	<path id="Fill-4" class="st0" d="M59.9,3.4c-1.8-1-3.6-1.4-5.4-1.4c-1.2,0-2.2,0.2-2.8,0.4c-0.7,0.3-1,0.7-1,1.2c0,0.6,0.3,1,1,1.2
		C52.2,5,53,5.2,54.2,5.2c1.7,0.1,2.7,0.2,3.3,0.3c1.5,0.2,2.6,0.6,3.3,1.2s1.1,1.4,1.1,2.4c0,1.3-0.6,2.3-1.7,3.1
		c-1.1,0.7-2.7,1.1-4.8,1.1c-3.1,0-5.4-0.7-7.1-2.1l1.1-1.5c1.9,1.2,3.9,1.8,6.1,1.8c1.4,0,2.5-0.2,3.3-0.6c0.7-0.4,1.1-0.9,1.1-1.6
		c0-0.8-0.5-1.3-1.5-1.6c-0.5-0.1-1.9-0.3-4.1-0.4c-2-0.1-3.4-0.4-4.2-0.8c-0.9-0.5-1.4-1.3-1.4-2.4c0-1.2,0.5-2.1,1.6-2.8
		s2.5-1,4.5-1c2.6,0,4.7,0.6,6.5,1.8L59.9,3.4"/>
	<polyline id="Fill-5" class="st0" points="80,2.3 74.3,2.3 74.3,12.9 72.3,12.9 72.3,2.3 66.6,2.3 66.6,0.4 80,0.4 80,2.3 	"/>
	<polyline id="Fill-6" class="st0" points="102.7,12.9 100.8,12.9 100.8,2.7 100.7,2.7 94.5,10.9 88.3,2.7 88.3,2.7 88.3,12.9 
		86.3,12.9 86.3,0.4 88.8,0.4 94.5,8 100.3,0.4 102.7,0.4 102.7,12.9 	"/>
	<path id="Fill-7" class="st0" d="M119.8,8.3l-3.1-6.1l-3.1,6.1H119.8z M124.3,12.9h-2.2l-1.4-2.8h-8.1l-1.4,2.8H109l6.3-12.5h2.5
		L124.3,12.9z"/>
	<path id="Fill-8" class="st0" d="M138.3,6.3c1.5,0,2.3-0.6,2.3-1.9c0-1.4-0.8-2.1-2.5-2.1H132v4H138.3z M142.8,12.9h-2.3l-3.2-4.8
		H132v4.8h-2V0.4h8.7c1.3,0,2.2,0.4,3,1.1c0.7,0.7,1.1,1.7,1.1,2.9c0,1.1-0.3,1.9-0.9,2.6c-0.5,0.6-1.3,1-2.2,1.1L142.8,12.9z"/>
	<polyline id="Fill-9" class="st0" points="163.9,12.9 161.3,12.9 155.6,6.4 152,9.1 152,12.9 150,12.9 150,0.4 152,0.4 152,6.9 
		160.4,0.4 163.2,0.4 157.1,5.2 163.9,12.9 	"/>
	<path id="Fill-10" class="st1" d="M176.1,0.5C176,0.5,176.1,0.6,176.1,0.5"/>
	<path id="Fill-11" class="st1" d="M181.9,0.5C181.8,0.5,181.9,0.6,181.9,0.5"/>
	<path id="Fill-12" class="st1" d="M182,0.5C181.9,0.5,182,0.6,182,0.5"/>
	<path id="Fill-13" class="st1" d="M182,0.5C182,0.5,182.1,0.6,182,0.5"/>
	<path id="Fill-14" class="st1" d="M175.8,0.8C175.9,0.4,175.9,1.2,175.8,0.8"/>
	<path id="Fill-15" class="st1" d="M175.9,0.8C175.9,0.7,175.9,0.8,175.9,0.8"/>
	<path id="Fill-16" class="st1" d="M176,0.8C176,0.8,176,0.9,176,0.8"/>
	<path id="Fill-18" class="st1" d="M192.3,11.7C192.3,11.8,192.3,11.8,192.3,11.7C192.3,11.8,192.3,11.8,192.3,11.7z M191.6,11.9
		c0.1-0.2-0.1-0.2-0.1-0.1C191.5,11.8,191.6,11.9,191.6,11.9z M191.2,11.2c-0.2,0-0.2,0-0.4-0.1C190.8,11.4,191.2,11.2,191.2,11.2z
		 M191.6,11c0,0,0-0.1-0.1-0.1C191.4,11.1,191.6,11.1,191.6,11z M190.7,10.8c0,0,0.2,0.1,0.2-0.1C190.8,10.6,190.7,10.7,190.7,10.8z
		 M190.6,10.7c-0.1,0,0-0.2-0.1-0.1C190.5,10.7,190.6,10.9,190.6,10.7z M191.8,10.4C191.7,10.4,191.7,10.4,191.8,10.4
		C191.7,10.5,191.8,10.5,191.8,10.4z M195.6,9.8C195.6,9.8,195.5,9.8,195.6,9.8L195.6,9.8z M191.6,9.9c0.1-0.2-0.1-0.2-0.1-0.1
		C191.5,9.9,191.5,10,191.6,9.9z M194.3,9.6C194.3,9.6,194.3,9.7,194.3,9.6c0.1,0.1,0.1,0,0.2,0C194.8,9.6,194.4,9.4,194.3,9.6
		L194.3,9.6c-0.1-0.1-0.1,0-0.1,0.1C194.3,9.7,194.3,9.6,194.3,9.6z M191.6,9.9c0.2,0.1,0.9,0.1,1.2-0.2
		C192.3,9.7,192,9.5,191.6,9.9z M190.3,9.6c0,0-0.1,0-0.1,0.1C190.2,9.6,190.3,9.7,190.3,9.6z M191.4,9.4
		C191.4,9.4,191.3,9.4,191.4,9.4C191.3,9.4,191.4,9.5,191.4,9.4z M191.1,9.2C191.1,9.3,191.1,9.2,191.1,9.2
		C191.1,9.3,191.1,9.3,191.1,9.2z M192.6,9.2L192.6,9.2C192.7,9,192.5,9,192.6,9.2C192.6,9.1,192.6,9.1,192.6,9.2z M190,9.2L190,9.2
		C190,9.2,190,9.3,190,9.2z M192,9C192,9,191.9,9,192,9L192,9z M191.2,9L191.2,9C191.2,9.1,191.2,9.1,191.2,9z M191.3,9.2
		c0.1,0,0.1,0.2,0.2,0V9.1c0,0,0.1,0,0.1-0.1C191.4,9,191.3,8.9,191.3,9.2z M190.1,9.1C190.1,9.2,190.1,9.2,190.1,9.1
		C190.2,9.1,190.1,9,190.1,9.1z M193,8.8c0,0.3,0.1,0.1,0.2,0.1C193.3,8.6,193.1,8.7,193,8.8z M193.7,8.7c0,0.1,0,0.1,0.1,0.1
		c0,0,0.1-0.3,0-0.3C193.8,8.7,193.8,8.7,193.7,8.7c0-0.1-0.1-0.1-0.1-0.1C193.6,8.8,193.7,8.7,193.7,8.7z M193.4,8.7
		C193.4,8.7,193.4,8.8,193.4,8.7C193.4,8.7,193.5,8.7,193.4,8.7c0.1,0.1,0.1,0.1,0.1,0.1h0.1c0-0.1,0-0.1,0-0.2
		C193.5,8.7,193.4,8.5,193.4,8.7z M190.9,8.9c0,0.1,0.1,0.1,0.2,0.1c0-0.1,0-0.2,0-0.2C191.1,9,190.9,8.7,190.9,8.9z M193,8.6
		C193.1,8.6,193.1,8.6,193,8.6c0.1-0.1,0.1-0.1,0.1-0.1s0,0-0.1,0V8.6z M191.3,8.7C191.3,8.8,191.3,8.8,191.3,8.7
		c0.1-0.1,0.1,0.1,0.2,0.1C191.5,8.5,191.4,8.7,191.3,8.7L191.3,8.7z M190.4,8.7c-0.1,0-0.2,0-0.2,0.2C190.3,8.8,190.4,9,190.4,8.7
		C190.4,8.7,190.4,8.6,190.4,8.7z M189.4,8.7C189.4,8.7,189.3,8.7,189.4,8.7C189.4,8.8,189.4,8.8,189.4,8.7z M193.6,8.3
		c-0.1,0-0.2,0-0.2,0.2c0.1,0,0.3,0.2,0.3-0.1c-0.2,0.1,0.1-0.3-0.1-0.2V8.3z M190.9,8.4c0.1,0,0.1,0,0.1-0.1c0,0,0,0-0.1,0
		C190.9,8.3,190.9,8.3,190.9,8.4z M194.1,8.1c0.1,0,0.2,0,0.2-0.2C194.2,8,194.1,8,194.1,8.1z M195.3,7.7L195.3,7.7L195.3,7.7z
		 M195.1,7.7c0,0-0.1,0-0.1,0.1C195,7.7,195.1,7.8,195.1,7.7z M193.4,7.9c0-0.1,0.1-0.1,0.1-0.2C193.4,7.6,193.3,7.8,193.4,7.9z
		 M193.6,7.5L193.6,7.5c0.1-0.1,0.1-0.1,0.1-0.1S193.7,7.4,193.6,7.5L193.6,7.5z M194.5,7L194.5,7C194.5,7.1,194.5,7.1,194.5,7z
		 M194.7,7.1c0.1,0,0.1,0,0.1-0.1C194.8,7,194.8,7,194.7,7.1C194.7,7,194.7,7,194.7,7.1z M194.9,6.3c0,0-0.2-0.1-0.2,0.1
		C194.8,6.4,194.9,6.5,194.9,6.3z M196,6.1c0.2-0.1,0.4,0.3,0.5-0.1C196.3,6.2,196.1,5.9,196,6.1z M196.1,5.8
		C196.1,5.8,196,5.8,196.1,5.8C196.1,5.8,196.1,5.9,196.1,5.8z M172.3,6.6L172.3,6.6L172.3,6.6z M194.6,5.9
		C194.7,6,194.7,5.9,194.6,5.9L194.6,5.9c-0.1-0.1,0.3-0.1,0.3,0.1C195,6.1,194.5,5.9,194.6,5.9z M195.1,5.7L195.1,5.7
		C195.1,5.7,195.1,5.8,195.1,5.7z M196.1,5.8c0-0.2,0-0.3-0.1-0.2C196,5.8,196.1,5.7,196.1,5.8z M194.8,6c0-0.3,0.2,0,0.2-0.4
		c-0.1,0.1-0.1,0.1-0.2,0C194.8,5.8,194.7,5.9,194.8,6z M172.3,6.5c0.1-0.1,0.1,0.1,0.2,0.1c0-0.3-0.1-0.3-0.2-0.3
		c0.1-0.1,0-0.3-0.1-0.4C172.2,6.1,172.2,6.3,172.3,6.5z M198.1,4.5C198.1,4.5,198,4.5,198.1,4.5L198.1,4.5z M194.3,4.9
		c0.2,0.3,0.3-0.1,0.7,0.1c0-0.2,0-0.3,0.1-0.2c0,0.1-0.1,0.2,0,0.2c0.2-0.3,0.7,0,1-0.3C195.3,4.5,195.1,4.7,194.3,4.9z M187.7,5
		C187.7,5,187.6,5,187.7,5C187.7,5,187.7,5.1,187.7,5z M195.5,4.2L195.5,4.2L195.5,4.2z M193.3,4.3c0,0-0.2-0.1-0.2,0.1
		C193.2,4.4,193.4,4.5,193.3,4.3z M191,4.6c0.1,0,0.1-0.2,0.1-0.3c-0.1,0-0.1,0-0.1,0.1C191.1,4.4,191.1,4.5,191,4.6z M193.5,4
		C193.4,4.1,193.5,4.1,193.5,4L193.5,4c0.1,0.2,0,0.4-0.1,0.1c0,0.1,0,0.2,0,0.3c0.1,0.1,0.1-0.2,0.1,0c0,0,0,0,0,0.1
		c0.1-0.1,0.2-0.2,0.2-0.4c-0.2,0.2-0.1-0.2,0-0.3C193.6,3.9,193.4,3.8,193.5,4z M196.2,3.4C196.1,3.5,196.1,3.4,196.2,3.4
		C196.1,3.5,196.2,3.5,196.2,3.4z M196,3.7c0-0.3,0.2,0,0.1-0.3H196C196,3.4,195.9,3.7,196,3.7z M195.9,3.7
		C195.9,3.8,195.9,3.6,195.9,3.7C195.9,3.6,195.9,3.6,195.9,3.7C195.9,3.5,195.9,3.5,195.9,3.7c0-0.1,0-0.2-0.1-0.2
		C195.8,3.5,195.8,3.7,195.9,3.7z M191.3,3.6C191.3,3.7,191.2,3.7,191.3,3.6C191.3,3.7,191.3,3.7,191.3,3.6z M196.5,3.3
		C196.6,3.3,196.6,3.3,196.5,3.3C196.7,3.1,196.5,3.1,196.5,3.3C196.5,3.2,196.5,3.2,196.5,3.3z M192.6,3.5
		C192.6,3.4,192.5,3.4,192.6,3.5C192.5,3.5,192.6,3.6,192.6,3.5z M192.5,3.3C192.5,3.3,192.4,3.3,192.5,3.3
		C192.5,3.4,192.5,3.4,192.5,3.3z M195.7,3.1c0,0.2,1,0.1,0.9,0.1c0,0.2-0.8,0.1-0.7,0.1c-0.1,0-0.2-0.1-0.1-0.3c-0.1,0,0.9,0,0.9,0
		C196.7,3.1,195.6,3.1,195.7,3.1z M195.9,2.9C195.9,2.9,195.8,2.9,195.9,2.9C195.9,2.9,195.9,3,195.9,2.9z M196.6,3L196.6,3
		C196.6,3.2,196.7,2.9,196.6,3C196.6,2.9,196.6,3,196.6,3z M172.4,3.7C172.4,3.7,172.3,3.7,172.4,3.7C172.4,3.8,172.4,3.8,172.4,3.7
		z M192.3,3.1C192.3,3.1,192.3,3.2,192.3,3.1C192.3,3,192.3,3,192.3,3.1z M193.2,2.9C193.2,2.9,193.1,2.9,193.2,2.9
		C193.2,3,193.2,3,193.2,2.9z M192.7,2.9L192.7,2.9C192.7,3,192.7,3,192.7,2.9z M194.7,2.8C194.7,2.7,194.7,2.7,194.7,2.8
		c0.1-0.1,0.1-0.1,0.1-0.1S194.8,2.7,194.7,2.8C194.7,2.7,194.7,2.7,194.7,2.8z M193.2,2.8L193.2,2.8c0.1-0.1,0.1-0.1,0.1-0.1
		S193.3,2.7,193.2,2.8L193.2,2.8z M193,2.9c0.1,0,0.1,0,0.1-0.2C193,2.7,193,2.7,193,2.9z M192.7,2.9C192.8,2.9,192.8,2.9,192.7,2.9
		c0.1-0.1,0.1-0.1,0.1-0.1S192.8,2.8,192.7,2.9C192.7,2.8,192.7,2.8,192.7,2.9z M193.4,2.7c0.1,0,0.2,0,0.2-0.2
		C193.5,2.5,193.4,2.5,193.4,2.7z M185.6,2.8L185.6,2.8L185.6,2.8z M194,2.2C193.9,2.2,193.9,2.2,194,2.2C193.9,2.3,194,2.3,194,2.2
		z M186.7,2.6L186.7,2.6L186.7,2.6z M185,2.7L185,2.7L185,2.7z M185.7,2.5C185.7,2.6,185.6,2.6,185.7,2.5
		C185.6,2.6,185.7,2.6,185.7,2.5z M192.6,2.2C192.5,2.2,192.6,2.2,192.6,2.2C192.6,2.1,192.6,2.1,192.6,2.2z M185.5,2.5
		c-0.1,0-0.2-0.1-0.2,0.1C185.4,2.5,185.5,2.6,185.5,2.5z M184.5,2.6C184.5,2.8,184.7,2.5,184.5,2.6C184.5,2.5,184.4,2.6,184.5,2.6z
		 M172,3c0.1,0,0.1,0,0.1-0.1s0-0.2-0.1-0.2C172.1,2.9,172,2.8,172,3z M185,2.6c0,0,0.2,0.1,0.2-0.1C185.1,2.4,185,2.4,185,2.6z
		 M191.2,2c0,0-0.1,0-0.1,0.1C191.1,2.2,191.2,2.2,191.2,2z M191,2.2L191,2.2c0.1-0.1,0.1-0.1,0.1-0.1S191.1,2.1,191,2.2
		C191,2.1,191,2.1,191,2.2z M184.7,2.5c-0.1,0-0.1,0-0.1-0.1C184.6,2.6,184.8,2.6,184.7,2.5z M171.9,2.7c0.1,0,0.1-0.1,0.1-0.1
		C172,2.5,171.9,2.5,171.9,2.7z M191.7,1.9c0,0-0.1,0-0.1,0.1C191.7,2,191.7,2,191.7,1.9z M191.3,2C191.3,2.1,191.3,2.1,191.3,2
		C191.6,2.1,191.5,1.8,191.3,2z M186,2.2c0,0-0.1,0-0.1,0.1C186,2.3,186,2.3,186,2.2z M193.2,1.8C193.1,1.9,193.2,1.9,193.2,1.8
		C193.3,2,193.3,1.6,193.2,1.8z M191.8,2c0.1-0.2,0.3,0.2,0.4-0.2C192.1,1.8,191.8,1.7,191.8,2z M172.3,2.3
		C172.2,2.3,172.2,2.3,172.3,2.3C172.2,2.4,172.3,2.4,172.3,2.3z M192.6,1.7c-0.1-0.1-0.1,0.1-0.2-0.1
		C192.4,1.9,192.6,1.9,192.6,1.7z M192.2,2c0-0.1,0.1-0.1,0.1,0c0-0.1,0-0.1,0.1-0.2c-0.1,0-0.1,0-0.1,0.1c0-0.1,0-0.1-0.1-0.1
		C192.1,1.8,192.1,1.9,192.2,2z M192.3,2.3c-0.1,0-0.2-0.3-0.3,0.1C192.2,2.4,192.2,2.6,192.3,2.3c0,0,0-0.1,0.1-0.1
		c-0.1,0.3,0.1,0.6-0.1,0.4c0.1,0.5,0.4,0.2,0.6,0.1c0.1,0,0.1,0.1,0.2,0.1c0-0.2,0-0.4,0.2-0.4c0,0.4,0.3-0.1,0.4,0.3
		c0.1-0.7,0.3-0.1,0.6-0.1c-0.1-0.3,0.1-0.4-0.1-0.5c-0.1,0.2-0.5,0-0.6-0.1c0.2,0.1,0.3-0.3,0.4-0.1c0-0.2,0-0.6-0.1-0.3
		c0,0.5-0.9,0-0.9,0.8c-0.1-0.2-0.4,0.2-0.3-0.3C192.6,2.2,192.3,2,192.3,2.3z M195.3,1.2c-0.1,0-0.2-0.1-0.2,0.1
		C195.2,1.2,195.3,1.4,195.3,1.2z M195,1.2c0,0-0.1,0-0.1,0.1C195,1.3,195,1.3,195,1.2z M194.2,1.5c0.1,0,0.1,0,0.1-0.2
		c0,0,0,0,0-0.1c0,0,0,0-0.1,0C194.2,1.4,194.2,1.4,194.2,1.5z M194.3,1.3c0.1,0.3,0.3,0.2,0.3,0C194.5,1.1,194.5,1.2,194.3,1.3z
		 M194.1,1.3C194,1.3,194,1.4,194.1,1.3c0,0.2,0.1,0.5,0.1,0.3C194.1,1.6,194.1,1.3,194.1,1.3L194.1,1.3
		C194.1,1.2,194.1,1.2,194.1,1.3z M197.3,1L197.3,1C197.3,1.1,197.3,1.1,197.3,1z M193.4,1.5c-0.2,0.1-0.5,0.1-0.7,0.3
		C192.9,1.7,193.3,1.7,193.4,1.5C193.4,1.6,193.4,1.5,193.4,1.5c0.2,0.2,0.4,0,0.6-0.1c0,0-0.1,0-0.1-0.1c0.1,0,0.2,0,0.2-0.2
		C193.8,1.2,193.3,1.2,193.4,1.5z M192.6,1.2C192.6,1.6,192.7,0.8,192.6,1.2C192.6,1.2,192.5,1.2,192.6,1.2z M188.1,1.8h0.1
		c0-0.2,0-0.2-0.1-0.2C188.1,1.7,188.1,1.7,188.1,1.8z M186.1,1.7c0,0-0.1,0-0.1,0.1C186.1,1.8,186.1,1.8,186.1,1.7z M192.9,1.2
		c0.1,0,0.1,0.1,0.2-0.1c0,0,0-0.1-0.1-0.1C193,1.1,192.8,1.1,192.9,1.2z M192.2,1.3c0.1,0,0.2-0.1,0.1-0.3
		C192.2,1,192.1,1.1,192.2,1.3z M190,1.4h0.1c0-0.1,0-0.4-0.1-0.3C190,1.3,189.9,1.3,190,1.4z M188.4,1.8c0.1,0.1,0.1-0.4,0-0.3
		C188.4,1.6,188.4,1.7,188.4,1.8z M193.2,1.1c0.1,0,0.1-0.1,0.1-0.1C193.2,0.9,193.2,0.9,193.2,1.1z M192.1,1c0.1,0,0.1-0.1,0.1-0.1
		C192.1,0.8,192,0.8,192.1,1z M192.4,0.8C192.4,0.9,192.5,0.9,192.4,0.8C192.5,0.8,192.4,0.7,192.4,0.8z M192.3,0.8
		c0-0.1-0.1-0.1-0.1,0C192.2,1,192.3,1,192.3,0.8z M192,0.9L192,0.9c0.1-0.1,0.1-0.1,0.1-0.1s0,0-0.1,0C191.9,0.8,192,0.9,192,0.9z
		 M191.8,0.9C191.9,0.9,191.9,0.9,191.8,0.9c0.1-0.1,0.1-0.1,0.1-0.1s0,0-0.1,0C191.8,0.8,191.8,0.9,191.8,0.9z M191.7,0.9
		C191.8,1,191.8,0.8,191.7,0.9C191.7,0.7,191.7,0.9,191.7,0.9z M190.7,1c0.1,0,0.2,0.1,0.1-0.1h-0.1C190.7,0.9,190.7,0.9,190.7,1z
		 M190.6,0.8c0,0.1-0.1-0.1-0.2,0C190.4,1.2,190.7,1,190.6,0.8z M190.2,1c0.1-0.2-0.1-0.2-0.1-0.1C190.2,0.9,190.2,1,190.2,1z
		 M190,1C190,1,190.1,1,190,1c0.1-0.1,0.1-0.1,0.1-0.1s0,0-0.1,0V1z M189.7,1c0.1-0.2-0.2-0.2-0.2-0.1C189.6,1,189.6,1.1,189.7,1z
		 M189.7,1c-0.1,0-0.2,0-0.3,0C189.4,1.4,189.7,1.4,189.7,1z M188.5,1.3C188.5,1.3,188.5,1.4,188.5,1.3c0.1,0.1,0.2,0.1,0.2-0.2
		C188.6,1.2,188.6,1,188.5,1.3z M188.4,1.1c-0.2,0-0.3,0-0.5,0C188,1.6,188.4,1.4,188.4,1.1z M187.9,1.1c0,0-0.1,0-0.1,0.1
		C187.8,1.2,187.9,1.2,187.9,1.1z M187.8,1.1l-0.6,0.1C187.2,1.3,187.8,1.2,187.8,1.1z M186.2,1.3c-0.1-0.1-0.2-0.1-0.3-0.1
		C185.9,1.6,186.1,1.5,186.2,1.3z M185.6,1.5c0.1,0,0.1-0.1,0.1-0.2C185.7,1.3,185.6,1.3,185.6,1.5z M185,1.6
		c0.3,0.1,0.3,0.1,0.6-0.2C185.5,1.3,185,1.2,185,1.6z M184.1,1.5c0.1,0,0.2,0,0.1-0.2h-0.1C184.1,1.4,184.1,1.5,184.1,1.5z
		 M193.4,0.7c-0.1,0-0.2-0.1-0.2,0.1c-0.2-0.1-0.6-0.2-0.7,0.2c0.2-0.1,0.3-0.1,0.5,0c0,0.2,0.1,0.2,0.1,0.1C193,1.1,193,1,193,1
		c0-0.2,0.1,0.1,0.1-0.1C193.2,0.8,193.3,0.9,193.4,0.7C193.4,0.6,193.4,0.6,193.4,0.7z M172.7,0.9c0.1,0,0.2,0.1,0.1-0.1
		C172.7,0.8,172.7,0.8,172.7,0.9z M190.5,12.3c0,0.1-0.2,0.1-0.2,0.3c-0.1-0.2-0.2-0.3-0.3-0.1c-0.2-0.4-0.1,0.2-0.4-0.2
		c-0.1,0,0,0.1,0,0.2c-0.2-0.1-0.6,0.1-0.9,0.2c-0.1,0-0.4-0.2-0.3,0.2c-0.2-0.2-0.3-0.1-0.5,0.1c-0.1-0.4-0.4,0.2-0.5-0.2
		c-0.2-0.1-0.8,0.2-1,0.2s-0.4-0.4-0.6,0c-0.1-0.5-0.3,0.2-0.4-0.3c-0.4,0.7-0.9-0.2-1.5,0.4c-0.1,0-0.1-0.2-0.2-0.2
		c-0.2,0.4-11.5-0.2-11.8-0.1c-0.3-0.2,0-1-0.1-1.2c0-0.1,0-0.6-0.1-0.9c-0.1-0.6,0-0.9,0-1.4c-0.2-0.2-0.1-0.8-0.1-1.1
		c0.3,0.1,0.3-0.6,0.4-0.8c0,0,0-0.3,0-0.5c0-0.1,0.1-0.1,0.1-0.1c0.1,0.1,0.1-0.7,0-0.7c0-0.6-0.1-2-0.2-2.6c0.1,0,0.2-0.2,0-0.1
		c0.1-0.2,0.3,0,0.3-0.2C172.1,3,172,3,171.9,3c0.1-0.3,0-0.3,0-0.6c0.1,0,0.1-0.1,0.1-0.1c0-0.1-0.1-0.1-0.1-0.1
		c0-0.1,0-0.3,0.1-0.2c0-0.2-0.1-0.1-0.1-0.4l0.1-0.1c0.1-0.7,0.5-1,0.8-0.8c0.1,0,5.7-0.4,5.8-0.3c-0.1,0.3,0.1,0,0.1,0
		c0,0.2,0.1,0.3,0.2,0.3c0,0.3,0.1,0.2,0.2,0.3c0.1-0.3,4.4-0.1,4.5-0.4c0.1-0.1,0.3,0.1,0.2,0.3c0,0,0.1,0,0.1,0.1
		c0.3-0.3,0.7,0.2,1-0.1c0-0.2-0.1-0.1-0.1-0.3c0.1-0.1,0,0,0.1,0c0,0.1,0,0.2,0,0.3c0.3,0.4,0.9-0.1,1.1,0.2c0-0.1,0.1-0.1,0.1-0.3
		l0,0c0.4,0.1,1.5,0.3,1.7,0c0.2,0.1,0.2,0.2,0.4-0.1c0.1,0.2,0.3-0.1,0.3,0.2c0.1-0.3,0.2-0.2,0.3-0.5c0.1,0,0.1,0.3,0.2,0.4
		c0.1-0.1,0.2,0.1,0.2,0c0.1,0.1,0,0.2-0.1,0.2c0.1,0.2,0.2,0.1,0.3,0c0-0.1-0.1-0.1-0.1-0.1c0.1-0.3,0.5-0.3,0.7-0.3
		c0.3,0,0.5,0.2,0.7,0c0,0,0-0.1,0-0.2c0.1,0.1,0.1,0.3,0.2,0.3c1.2-0.5,1.9,0.3,2.7-0.5c0.1,0,0.2,0,0.2,0c0,0.1,0,0.1,0,0.1
		c-0.1,0.2-0.3,0.2-0.5,0.5c0.1,0.5,0.3-0.4,0.4,0c-0.1,0-0.1,0.1-0.1,0.1c0.1,0,0.1,0,0.1-0.1c0,0,0.1,0,0-0.1
		c0-0.2,0.1,0.1,0.1,0.2c0.2-0.1,0.4,0.2,0.5-0.2c0.1,0,0,0.2,0.1,0.2c0.1-0.1-0.1-0.3,0-0.3c0.1,0.1,0.2,0.1,0.2,0.3
		c0,0,0.1,0,0.1-0.1c0.1,0,0.1,0,0.1-0.1c0,0.1,0.1,0.1,0.1,0.1c0-0.1,0-0.1,0-0.2l0,0c0,0.1-0.5,0.2-0.5,0.3c0.1,0,0.6-0.4,0.5-0.3
		c0-0.2-0.4-0.1-0.3-0.1c0,0.3-0.1-0.1-0.1,0.2c0.2,0.1,0.3,0.1,0.4-0.1l0.1-0.1c0,0.2-0.1,0.2-0.1,0.4c0.4-0.3,1.6,0.2,2.1-0.1
		c0,0.1,0,0.2,0,0.2c0.1-0.4,0.3-0.4,0.5,0c-0.2,0.2-0.5-0.2-0.5,0.4c-0.1,0,0-0.1,0-0.3c-0.2,0-0.3,0.1-0.4,0
		c-0.1,0.2-1.4,0.2-1.4,0.2c-0.1,0-0.1,0.1,0,0.2c-0.1,0-0.1-0.2-0.2-0.1c0-0.1,0,0,0,0s-0.1,0-0.1,0.1c0,0-0.1,0-0.1-0.1
		c0.1-0.1,0-0.3-0.1-0.2c0,0.1,0.1,0,0.1,0.2c-0.1,0,0,0.1-0.1,0.2c-0.1,0,0-0.3-0.1-0.2c0,0.1-0.1,0.2-0.1,0.4V1.7c0,0,0-0.1,0,0
		c-0.1,0,0.4-0.2,0.3-0.1c-0.1-0.2-0.2,0.3-0.4,0.2c0-0.2,0.1-0.2,0.2-0.2c0-0.4-0.3,0.1-0.4-0.1c0,0.3,0.2,0.2,0,0.4
		c0.1,0.2,0.2,0,0.3,0.1c0,0.1,0,0.1,0,0.2c-0.1,0-0.1,0-0.2,0c-0.1,0.3,0.1,0,0.1,0.2c0.1,0,0.1-0.1,0-0.2c0.1-0.1,0.1,0.3,0.2,0
		c0,0.1,0,0.1,0,0.2c0.1,0,0.1,0,0.2,0c0-0.1-0.1,0-0.1-0.1c0.1,0-0.2-0.3-0.2,0.1l0,0c0-0.1-0.1,0-0.1,0.1c-0.2,0,0.4,0.1,0.4,0.2
		c0,0,0,0-0.1,0c0-0.1,0,0,0,0c0,0.1-0.3,0.1-0.3,0l0.1,0.1v0.1c0.1,0,0.1-0.2,0.2-0.1c0,0.3-0.2,0.1-0.2,0.4
		c-0.1-0.1,0.4,0,0.3-0.1c0-0.1-0.4,0-0.3-0.2c0,0.1,0,0,0,0V2.8c-0.1,0.1,0.4,0.2,0.3,0.2c0.1-0.3-0.3,0.1-0.4-0.1
		c0.1,0.2,0.1,0.2-0.1,0.2c0-0.1,0-0.2,0-0.2c0.1,0,0.1-0.2,0.2-0.1c0-0.2-0.1-0.1-0.1-0.3c-0.1,0,0,0.3,0,0.4c-0.1,0,0-0.3-0.1-0.2
		c0,0.1,0,0.1,0,0.4c-0.1,0-0.1,0-0.2,0c0.1-0.2-0.1-0.1-0.1-0.3V2.7c0-0.1,0.1,0,0.1-0.1c0,0,0,0.1,0,0.2c-0.1,0,0,0.1,0,0
		s0.1-0.2,0.1-0.2c-0.2-0.4-0.5,0.4-0.3,0.3c0,0.1,0,0.1,0,0.1c-0.1,0.1-0.1,0.1-0.2,0.2c0.1-0.1,0.1-0.2,0-0.4
		c0.2,0-0.1-0.2,0.1-0.1c-0.2-0.2-0.3,0.5-0.5,0.5s-0.1,0.1-0.3,0.1c0,0.1,0.1,0.2,0.1,0.1l0,0c0,0.1-0.2,0.1-0.2-0.1
		c0,0.1-0.1,0.1-0.1,0.3l-0.1-0.1c0,0,0,0,0-0.1v0.1c0,0.2-0.1-0.1-0.1,0c0,0.4,0.1,0,0.1,0.3c0,0,0,0,0,0.1c0,0,0,0,0-0.1
		c0.1-0.1,0.3,0.1,0.2-0.2c0,0,0,0,0.1,0c0.1,0.2,0.1,0.1,0,0.4c0.1-0.2,0.3-0.2,0.3-0.4c0.1,0,0,0.2,0.1,0.1c0,0,0,0,0,0.1V3.7
		c0-0.2,0.1-0.2,0-0.4c-0.2,0.2-0.2,0.4-0.5,0.3c0-0.1,0.1-0.2,0.2-0.2c0-0.1,0-0.1-0.1-0.1c0-0.1,0.1-0.1,0.1-0.2
		c0.1,0.2,0.1,0,0.2,0c0.1,0,0.3,0.3,0.2,0.1c0.1,0,0,0.3,0,0.4c0,0-0.1,0-0.1-0.1c0,0.5,0.2-0.1,0.1,0.4c0.1-0.2,0.2-0.2,0.2-0.4
		c0.1,0,0.1,0.3,0.1,0.4c0.1,0,0.1-0.3,0.1-0.5c0.1,0,0.1,0,0.1,0.2c0,0,0,0.1,0,0c0.1,0.1,0.1-0.3,0.2-0.2c0,0.1-0.1,0.1-0.1,0.2
		c-0.1,0-0.1,0-0.2,0.1c0,0.2,0.2-0.1,0.1,0.2c0,0,0,0.1-0.1,0.1c-0.1-0.1-0.4,0-0.6,0.1c0,0.1,0.2,0,0.3,0.1v0.1
		c-0.2-0.1-0.2,0.1-0.4,0.2c0,0.2,0.1,0,0.2,0.1c0,0.2-0.1,0.2-0.2,0.1c0.2,0.4,0.4-0.1,0.6-0.1c0,0.1,0,0.1,0,0.2
		c0-0.1,0.1-0.3,0.1,0c0.1-0.1,0.3-0.1,0.5-0.2c0,0-0.5,0.1-0.4,0.1c0-0.1,0.4-0.2,0.4-0.1c-0.3,0-0.3-0.3-0.3-0.2c0,0,0,0,0,0.1
		c0,0,0,0.1,0,0c0,0,0,0,0-0.1c0.1,0,0.1,0,0.1-0.1c0.2,0.2,0.5,0.1,0.7,0c0-0.5-0.1-0.3-0.1-0.5c-0.1,0-0.1,0.2-0.2,0.2
		c-0.1-0.4-0.5,0.1-0.6-0.1c0.1-0.1,0.2-0.1,0.1-0.4c0.2,0.5,0.6-0.2,0.8,0.2c0.1,0,0-0.2,0.1-0.3c0.1,0,0,0.1,0,0.2
		c0.1,0.1,0.2,0,0.4-0.1c0.1,0.2,0.1-0.3,0.3-0.2c0,0.1,0.1,0.1,0.1,0.1c0-0.1-0.1-0.1-0.1-0.1c0-0.2,0.2-0.4,0.3-0.2
		c-0.2,0,0,0.5,0,0l0.1-0.1c0.2,0-0.8,0.1-0.6,0c0,0.1,0,0.1,0,0.2c0.1,0,0.2-0.2,0.2,0.1c0,0-0.1,0-0.1,0.1h-0.1
		c0,0.1,0.2,0.2,0.1,0c0,0,0.1,0,0.1-0.1h0.1c0,0.2-0.1,0.2-0.1,0.3s0.2,0.1,0.2,0c0,0,0-0.2,0.1-0.2h0.1c0,0.1,0,0.1,0.1,0.1
		c0-0.1,0-0.1-0.1-0.1c0-0.3,0.1,0,0.2-0.2c0,0.1,0,0.3,0,0.4c0.1-0.1,0-0.4,0.2-0.3c0,0.1,0,0.1,0,0.2h-0.1c0,0.1,0.1,0.1,0.1,0
		c0.1-0.1,0.2,0.1,0.3,0c0,0.1,0,0.1,0.1,0.1c0-0.1,0-0.1-0.1-0.1c-0.1-0.2-0.2,0-0.2-0.1c0-0.3,0.2-0.1,0.3,0c0.1,0,0-0.1,0-0.3
		c0.1,0.1,0.5,0.3,0.5,0V3c0,0,0,0.1,0,0.2c0,0,0-0.2,0-0.3c-0.1,0-0.1,0-0.1,0.2c-0.1,0-0.1-0.2-0.1-0.3c0,0,0,0,0-0.1
		c0.1,0,0.1,0.2,0.2,0.1v0.1V2.8c0-0.1,0.1-0.1,0.1-0.1c0,0.2-0.1,0.2-0.1,0.3c0,0,0,0-0.1,0c0,0.1,0,0.2,0,0.3
		c-0.1,0.2-0.4,0.1-0.6,0.2l0,0c0,0.1,0,0,0,0c0.3,0,0.7,0.2,0.9,0c0.2,0,0.3,0.1,0.4,0c0.1,0.2-0.1,0.2-0.2,0.2
		c-0.5,0.1-1.4-0.2-1.7,0.1c-0.1-0.1-0.1-0.2-0.2-0.3c0.1,0.3-0.1,0.2-0.1,0.4l0,0V3.8v0.1c0,0.1,0,0,0,0h0.1c0,0.1,0,0.1-0.1,0.1
		c0,0.1,0.1,0,0.1,0.2c-0.1-0.1-0.2,0.1-0.2-0.2c-0.2,0-0.2,0.1-0.3,0.2c-0.1-0.1,0-0.1,0-0.2c0-0.2-0.2,0-0.1-0.2
		c-0.1-0.1-0.1,0.1-0.1,0.2c0-0.1,0.9-0.1,0.8-0.1V4c-0.1,0-0.2,0.2-0.2-0.1c-0.2,0-0.3,0.2-0.4,0.4c0-0.2,0-0.3-0.1-0.2
		c0-0.1-0.3-0.1-0.1-0.2c-0.1-0.2-0.2,0.1-0.3,0c0,0.2,0.1,0.2,0.2,0.1c-0.1,0.1,0,0.2,0,0.3H195c0-0.4-0.1,0.3,0,0
		c0,0.1,0.2,0.1,0.1,0l0,0c0,0.1,0,0,0,0c0,0.1,0.1,0.1,0.2,0c0,0.2,0.2-0.2,0.2,0.1c0.1-0.1,0.1-0.1,0.3-0.2c0-0.1,0-0.1-0.1-0.1
		c0.1-0.2-0.8,0.1-0.7,0.2c0.1,0,0.1-0.2,0.2-0.2c-0.1,0.3,0.1,0.2,0.1,0.1c0,0,0.1,0.1,0.1,0.2c0.2-0.1,0.3,0,0.3-0.2
		c0.1,0.2,0.6,0.2,0.7-0.2c0.1,0.1,0,0.1,0,0.3c0.1-0.1,0.2,0.1,0.3-0.2c0.1,0.2,0.2,0,0.3,0.1c0.1,0,0.1-0.5,0.2-0.3
		c0,0.1-0.2,0.2,0,0.2c0.3,0.2,1.5,0.2,1.8,0.1c0.4,0.2-0.3,0,0.3,0.3c-1,0.1-0.4,0.1-1.4,0c-0.1,0,0,0.3-0.1,0.2c0-0.1,0-0.1,0-0.2
		c-0.1,0.1-0.2-0.1-0.3,0.1c0.1,0.1,0.1,0.2-0.1,0.1c0,0.1,0.1,0,0.1,0.2c-0.1-0.1-0.1,0.1-0.2,0.1c0.1-0.3-0.1-0.4-0.2-0.3
		c0-0.1,0-0.1,0.1-0.1c-0.3-0.1-1-0.3-1.3,0.1c0.1,0.1,0.2,0.2,0.4,0.2c-0.5,0-0.1,0.4-0.5,0.1c-0.1,0.1-0.2,0.1-0.3,0
		c-0.6,0.5-0.9,0-1.7,0.5c0.4,0.2,0.5-0.1,0.8-0.1c0.1-0.1,0.4,0.1,0.5-0.1c0,0,0,0.1,0,0.2c0.4-0.4,0-0.1,0.3-0.4
		c0,0,0.1,0.1,0.1,0.2c0.1-0.2,0.7,0.1,0.7-0.3c0,0.1,0,0.1,0,0.2c0.3,0,0.6-0.1,0.9-0.1c0.1,0,0.2,0.2,0.3,0.2c0.2,0,0.5-0.3,0.6,0
		c0.5-0.2,0-0.2,0.5,0c0,0.3-0.2-0.1-0.1,0.2V5.4c-0.5,0.2,0.2,0-0.4,0c-0.3,0-0.6,0.2-0.9,0.2c-0.1,0-0.4-0.2-0.3,0
		c-0.1-0.1-0.5,0.1-0.6-0.1c-0.2,0.2-0.8,0.2-1.1,0.1c-0.2,0.2,0.6,0.1,0.4,0.2c0.1,0.3-0.7,0.2-0.5,0.2c0.1,0,0.3-0.1,0.4-0.2
		c0.5,0.2,1.1,0,1.6,0.1c0,0.2,0.2,0.2,0.1,0c0.1,0.2,0.2-0.1,0.3,0.1c0,0,0,0-0.1,0c0,0.1,0.1,0.1,0.1,0c0.1-0.3,0.1,0.1,0.2-0.1
		c0,0.1,0,0.1,0,0.2c0.2-0.1,0.6-0.1,0.6,0c0.2-0.2,0.4-0.2,0.6-0.1c-0.1,0-0.4,0.3-0.5,0.2c0.1,0.4,0.5-0.1,0.6,0.2
		c0.1-0.1,0.2-0.2,0.3-0.1c0-0.1-0.1-0.2-0.1-0.1c0-0.1,0-0.1,0-0.1c0-0.1,0.1-0.1,0.1-0.1c0,0.1,0,0.1-0.1,0.1
		c0.1,0.2,0.3,0.1,0.4-0.2c0.4,0.3-0.8,0.1-0.4,0.1c0,0.5-0.5,0.2-0.7,0.2c0.1,0,0-0.1,0,0c-0.2,0.1,1,0,0.8,0.1
		c0.1,0.3-1.2-0.1-1.1,0.2v0.1c-0.3-0.1,1,0.2,0.6,0c-1.4,0.3-2.2,0-3.5,0.4c0.2,0.3-0.4-0.1-0.1,0c-0.2,0.3,0.3,0.1-0.1,0.2
		c0-0.2,0.1-0.1,0.2-0.2c0-0.2-0.1,0-0.2-0.1c-0.1,0.5-0.5,0.1-0.6,0.3c0,0.2,0.2,0,0.1,0.2c-0.1,0.1-0.4-0.1-0.5,0.2c0,0,0,0,0-0.1
		V7.4c0-0.2,0.1,0,0.2-0.1V7.2c0,0,0.1,0,0.1-0.1c0,0,0,0,0.1,0c0,0.1,0,0,0,0c0.3-0.1,0-0.5-0.1,0c0,0-0.1,0-0.1,0.1
		c-0.2,0.1-0.3,0-0.3,0.2c0,0-0.1,0-0.1,0.1c-0.1-0.1,0.2,0,0.2-0.2c0.1,0-0.2,0.1-0.1-0.2c0,0,0.2,0.1,0,0c0,0,0,0.3-0.1,0.1
		c0,0,0-0.1,0,0c-0.1,0.1,0,0.2,0,0.4c-0.1,0-0.2-0.3-0.2-0.1h-0.1c0,0.2,0,0.3,0.1,0.2c-0.1,0.1-0.3,0-0.4-0.1
		c0,0.3-0.3,0.2-0.4,0.2c-0.1,0.2-0.6,0.4-0.8,0.3c0-0.3,0.4-0.2,0.3-0.3c-0.1,0.2-0.5,0.3-0.7,0.3c0-0.1,0.5-0.2,0.5-0.2
		c-0.1,0-0.6,0.1-0.6,0.3l0.4-0.1c-0.1,0.2-0.8,0.1-0.9,0.1c0,0,0,0.2-0.1,0.2c0.1,0.2,0.2-0.2,0.2,0.1c-0.1,0.1-0.1,0-0.2,0.2
		c0,0.1,0.1,0.1,0.1,0.1c0,0.2-0.2,0-0.1,0.2c-0.1,0-0.1-0.2,0-0.3c0-0.2-0.1,0.2-0.2,0.1c0-0.2,0.1-0.1,0.1-0.2
		c-0.1-0.2-0.4,0.1-0.6,0.2c0.1,0.1,0.2,0.1,0.2-0.1c0.1,0,0,0.2,0,0.2c0.1,0,0.1-0.1,0.1-0.2c0.2,0,0.4,0.3,0.3,0.5
		c0.1,0.1,0.1-0.1,0.1-0.1c0,0.1,0,0,0,0c0.2-0.1,0.4-0.6,0.7-0.4c0,0.1-0.1,0.1-0.1,0.1c0,0.1,0,0.1,0.1,0.1
		c-0.1,0.2-0.1-0.2-0.3-0.1c-0.1,0.3-0.1,0.1-0.2,0.3c0,0,0.2,0.1,0.2,0.3c0.1-0.2-0.1-0.2,0-0.4c0.1,0,0.1,0.2,0.2,0
		c0.1,0.1-0.1,0.2,0,0.4c-0.1,0-0.1,0.2-0.2,0.2c0.1,0.2,0.2,0,0.2-0.2c0.1,0,0.2-0.1,0.3-0.2c-0.1-0.1-0.2-0.2-0.1-0.6l0.1,0.1
		c0,0,0,0,0,0.1c0,0,0,0,0-0.1c0.2,0.1,0.3-0.2,0.4-0.2c-0.1,0.4-0.2,0.2-0.4,0.3c0,0.1,0,0.1,0,0.2c0.1,0,0.2-0.4,0.2,0l-0.1,0.1
		c0.1,0,0.3,0,0.3-0.1s-0.1-0.1-0.1-0.4c0.1,0.1,0.1,0,0.1-0.2c0.1,0,0.1,0.1,0.2,0.1c0,0.1,0,0.2,0,0.3c0.1,0,0.1-0.1,0.2-0.1
		c0-0.2-0.1-0.1-0.1-0.4c-0.1,0.1-0.1,0.2-0.2,0.1c0-0.1,0.1-0.1,0.1-0.1c0-0.2-0.2,0.2-0.2-0.1c0.1,0,0.5-0.1,0.6-0.2
		c0.2,0.1,0-0.2,0.2,0c0.2-0.1,0.7-0.4,0.9-0.3c0,0.1-0.1,0-0.1,0.1c-0.1,0-0.1,0.1-0.1,0.1c0,0.2,0.2,0.1,0.1-0.1
		c0.2,0-0.3-0.1-0.1-0.2c0,0.1,0,0.2,0.1,0.1c0,0.1,0,0.1,0,0.1c0.3-0.2,0.6-0.3,1-0.3v0.1c0,0,0,0.1,0,0V7.5c0.1-0.2,0,0.3,0.1,0.3
		s0.1-0.2,0.1-0.2c0.1,0.2,0.4,0.1,0.5,0c0.1,0.1-0.7,0.2-0.6,0c0.1,0,0,0.2,0.1,0.1c-0.5,0.2-0.5,0.2-0.9,0.2c0,0.1,0,0.2-0.1,0.3
		c-0.1,0,0-0.2,0-0.3c-0.1-0.1-0.2,0.2-0.2,0c0,0.3-0.2,0.1-0.3,0.4c0,0-0.1,0-0.1,0.1c-0.1,0-0.1-0.1,0-0.2c-0.2,0-0.3,0-0.4,0.1
		c0-0.1,0-0.1,0.1-0.2c-0.1-0.2,0.2,0.2,0.1-0.1c-0.1,0.1,0,0.4-0.1,0.4c0-0.1,0-0.3,0.1-0.3c-0.1-0.1-0.2,0.3-0.3,0.2
		c0,0.1,0.2,0,0.1,0.2c0.1,0,0.2,0,0.2,0.1c0,0.2-0.1,0-0.2,0.1c0,0.1,0.1,0.2,0.1,0.1c0,0.1,0.1,0.1,0.1,0c0.1,0,0.1,0,0.2,0v0.1
		c0.4,0,0.4-0.1,0.9,0c0,0.1,0.1,0.1,0.1,0.2c-0.1-0.1-0.4,0.1-0.6,0c0,0.2,0,0.2,0,0.4c0.1-0.1,0.2,0,0.2-0.2c0.1,0,0,0.2,0.1,0.1
		c0,0.2-0.2,0.1-0.2,0.2c0,0,0-0.1-0.1-0.1c0,0.1,0.1,0.2,0.1,0.1c0.1,0.3,0.2,0,0.3,0.1c0.2-0.1,0.5,0,0.9-0.1
		c0,0.1-0.1,0.1-0.1,0.1s0,0-0.1,0c0,0.1,0.1,0.1,0.1,0c0,0,0.2,0,0.1-0.1c0.2,0-0.5,0-0.2-0.1c0,0.1,0,0.1,0,0.1
		c0.3-0.1,0.3-0.1,0.5,0c0,0.1,0,0.1,0.1,0.1c0-0.1,0-0.1-0.1-0.1c0.2-0.2,0.4,0,0.6-0.1c0.1,0,0,0.2,0,0.3c-0.1,0-0.1-0.2-0.2-0.2
		c0,0.1,0,0.2,0.1,0.1c-0.5,0.2-0.9,0.1-1.3,0.1c0,0,0,0,0-0.1v0.1c-0.5,0.1-0.1,0.2-0.5,0.1c0,0,0,0.1,0,0.2
		c-0.1-0.1-0.2-0.2-0.3-0.1c0,0.1,0,0.1,0.1,0.1c-0.6,0.2-0.7-0.1-1.3,0.2c-0.1-0.2-0.3,0-0.5,0c-0.3,0-0.6-0.1-0.9,0.1
		c-0.1,0.1,0,0.3-0.1,0.4c-0.2-0.4-0.6-0.1-1,0c0,0.2,0.2,0,0.1,0.3c0.2-0.2,0.2,0.4,0.4,0.1c-0.1-0.1-0.1-0.3-0.2-0.2
		c0.1-0.1,0.3-0.1,0.5-0.1c0,0.1,0,0.1,0,0.2c0.1,0.1,0-0.3,0.1-0.2c0,0.2,0.1,0,0.1,0.3c-0.1,0-0.1,0-0.2,0.1c1,0.8-0.5,0.9,0.5,0
		c0.1,0,0.1,0,0.2,0c-0.1,0.6-0.3,0.8-0.5,1c-0.3,0.2-0.6,0-1.1-0.1c0.2,0.2,0.5,0.7,0.7,0.7L190.5,12.3z"/>
	<path id="Fill-20" class="st1" d="M197.9,0.8C197.8,0.8,198,0.4,197.9,0.8"/>
	<path id="Fill-21" class="st1" d="M189.4,1.2C189.4,0.9,189.6,1.3,189.4,1.2"/>
	<path id="Fill-22" class="st1" d="M198.2,1.1C198.2,0.7,198.2,1.5,198.2,1.1"/>
	<path id="Fill-23" class="st1" d="M197.8,1.2C197.9,0.9,197.9,1.5,197.8,1.2"/>
	<path id="Fill-24" class="st1" d="M198,1.2c0-0.1,0.1-0.1,0.2-0.1C198.1,1.2,198,1.2,198,1.2"/>
	<path id="Fill-25" class="st1" d="M198.8,1.2C198.8,1.2,198.8,1.3,198.8,1.2"/>
	<path id="Fill-26" class="st1" d="M200.8,0.4C200.7,0.4,200.8,0.3,200.8,0.4L200.8,0.4"/>
	<path id="Fill-27" class="st1" d="M197.5,0.9c-0.1,0.2-0.2,0.1-0.3,0.2C197.2,0.9,197.4,0.9,197.5,0.9"/>
	<path id="Fill-28" class="st1" d="M197.7,1C197.6,0.9,197.7,1,197.7,1"/>
	<path id="Fill-29" class="st1" d="M200,1.2C200,1.1,200.1,1.2,200,1.2"/>
	<path id="Fill-30" class="st1" d="M200.8,0.4C200.8,0.4,200.8,0.5,200.8,0.4c-0.2,0-0.1,0.2-0.2,0.3c-0.1-0.3-0.4-0.1-0.4,0.2
		c-0.1-0.1-0.1-0.1-0.2-0.3c-0.1,0,0,0.2,0,0.2c-0.1,0.3-0.1-0.3-0.2-0.1c0-0.2-0.2,0.1-0.2-0.2C199.8,0.7,200.3,0.3,200.8,0.4"/>
	<path id="Fill-31" class="st1" d="M200.8,0.4c0.1,0.1,0.3-0.1,0.3,0.1c0,0.3-0.3,0.3-0.4,0.2C200.7,0.6,200.8,0.6,200.8,0.4
		C200.8,0.5,200.9,0.5,200.8,0.4"/>
	<path id="Fill-32" class="st1" d="M201,0.4c0.2-0.1,0.1,0.1,0.3,0.1C201.3,0.7,200.9,0.7,201,0.4"/>
	<path id="Fill-33" class="st1" d="M201.6,0.6C201.4,0.6,201.6,0.1,201.6,0.6"/>
	<path id="Fill-34" class="st1" d="M199.8,1.2C199.8,1.2,199.9,1.3,199.8,1.2"/>
	<path id="Fill-35" class="st1" d="M199.9,1.3c0-0.1,0.1-0.1,0.1-0.1C200,1.2,199.9,1.2,199.9,1.3"/>
	<path id="Fill-36" class="st1" d="M198.4,1.3C198.4,1.2,198.5,1.2,198.4,1.3"/>
	<path id="Fill-37" class="st1" d="M198.6,1.3c0-0.1,0.1-0.1,0.1-0.1C198.7,1.3,198.6,1.3,198.6,1.3"/>
	<path id="Fill-38" class="st1" d="M198.8,1.4C198.6,1.5,198.8,1.1,198.8,1.4"/>
	<path id="Fill-39" class="st1" d="M201.3,0.6C201.4,0.2,201.4,1,201.3,0.6"/>
	<path id="Fill-40" class="st1" d="M201.4,0.6C201.4,0.6,201.5,0.7,201.4,0.6"/>
	<path id="Fill-41" class="st1" d="M201.6,0.5C201.6,0.5,201.6,0.7,201.6,0.5"/>
	<path id="Fill-42" class="st1" d="M197.2,1.1h0.1c0,0.1,0,0.1,0,0.2h-0.1C197.2,1.2,197.2,1.2,197.2,1.1"/>
	<path id="Fill-43" class="st1" d="M198.3,1.5c-0.1,0-0.1,0.2-0.2,0.2C198.1,1.6,198.3,1.1,198.3,1.5"/>
	<path id="Fill-44" class="st1" d="M198,1.4C198,1.3,198.1,1.4,198,1.4"/>
	<path id="Fill-45" class="st1" d="M198.6,1.3c0,0.1-0.1,0.1-0.1,0.3c-0.1-0.1-0.2,0.1-0.4,0C198.1,1.2,198.3,1.4,198.6,1.3"/>
	<path id="Fill-46" class="st1" d="M198.8,1.5C198.8,1.5,198.8,1.4,198.8,1.5C198.8,1.4,198.8,1.5,198.8,1.5"/>
	<path id="Fill-47" class="st1" d="M199.5,1.4C199.5,1.3,199.5,1.4,199.5,1.4"/>
	<path id="Fill-48" class="st1" d="M199.5,1.4C199.7,1,199.6,1.7,199.5,1.4"/>
	<path id="Fill-49" class="st1" d="M199.5,0.8c0-0.1,0.1-0.1,0.1-0.1C199.6,0.8,199.6,0.8,199.5,0.8"/>
	<path id="Fill-50" class="st1" d="M199.6,0.8C199.7,0.4,199.6,1.4,199.6,0.8"/>
	<path id="Fill-51" class="st1" d="M199.8,0.7c0,0.1,0.1,0.2,0.1,0.2c0,0.2-0.1,0.1-0.2,0.1C199.7,0.8,199.7,0.6,199.8,0.7"/>
	<path id="Fill-52" class="st1" d="M198.6,1.4c0-0.1,0.1-0.1,0.1-0.1C198.7,1.4,198.7,1.4,198.6,1.4"/>
	<path id="Fill-53" class="st1" d="M198.8,1.5C198.8,1.7,198.6,1.4,198.8,1.5"/>
	<path id="Fill-54" class="st1" d="M200,1.4C199.9,1.4,199.9,1.3,200,1.4"/>
	<path id="Fill-55" class="st1" d="M197.5,1.3C197.5,1.3,197.5,1.4,197.5,1.3"/>
	<path id="Fill-56" class="st1" d="M200,1.5C199.9,1.5,200,1.6,200,1.5"/>
	<path id="Fill-57" class="st1" d="M199.9,1.4C200,1.4,200,1.5,199.9,1.4"/>
	<path id="Fill-58" class="st1" d="M200,1.5C200,1.4,200.1,1.5,200,1.5"/>
	<path id="Fill-59" class="st1" d="M201.1,1.2c-0.1-0.1-0.2,0-0.4-0.1C200.8,1.2,200.8,1.2,201.1,1.2c-0.6,0-0.9,0.1-1.4,0
		c-0.1,0-0.1,0.1-0.1,0.2c-0.3-0.3,0.3,0-0.1-0.1c0-0.1,0.1-0.1,0-0.1c0.6-0.2,0.2-0.1,1.3-0.3c0-0.1-0.1-0.1-0.2-0.1
		c0.2-0.1,0.4-0.1,0.6,0c-0.1,0.2-0.1-0.1-0.3,0c0.1,0.3,0.3,0.1,0.5,0.1C201.4,1.2,201.2,1,201.1,1.2z"/>
	<path id="Fill-60" class="st1" d="M201.2,0.9c0-0.2,0.3-0.2,0.2,0.1C201.4,0.9,201.2,0.8,201.2,0.9"/>
	<path id="Fill-61" class="st1" d="M199.3,1.7C199.4,1.3,199.4,2,199.3,1.7"/>
	<path id="Fill-62" class="st1" d="M199.4,1.6C199.4,1.6,199.5,1.7,199.4,1.6"/>
	<path id="Fill-63" class="st1" d="M200.2,0.9C200.2,0.9,200.3,1,200.2,0.9"/>
	<path id="Fill-64" class="st1" d="M201.4,0.9C201.3,0.8,201.4,0.9,201.4,0.9"/>
	<path id="Fill-65" class="st1" d="M201.5,0.9C201.5,0.8,201.6,0.9,201.5,0.9"/>
	<path id="Fill-66" class="st1" d="M202.3,0.8C202.3,0.8,202.4,0.9,202.3,0.8"/>
	<path id="Fill-67" class="st1" d="M204.7,0.6c0.1,0,0.1,0.2,0.2,0.2c0,0.2-0.2,0.1-0.3,0.1C204.5,0.6,204.7,0.8,204.7,0.6"/>
	<path id="Fill-68" class="st1" d="M198.8,1.7C198.8,1.7,198.8,1.8,198.8,1.7"/>
	<path id="Fill-69" class="st1" d="M199.5,1.8C199.5,1.7,199.5,1.7,199.5,1.8"/>
	<path id="Fill-70" class="st1" d="M201.5,1C201.4,1,201.5,1.1,201.5,1"/>
	<path id="Fill-71" class="st1" d="M201.6,1.1c0-0.2,0.3-0.1,0.4-0.1C201.9,1.2,201.7,1,201.6,1.1"/>
	<path id="Fill-72" class="st1" d="M202.1,1c0-0.2,0.2-0.1,0.3-0.1C202.4,1.1,202.2,1,202.1,1"/>
	<path id="Fill-73" class="st1" d="M203.2,1c0,0.2-0.1,0.1-0.2,0C203,0.8,203.1,0.9,203.2,1"/>
	<path id="Fill-74" class="st1" d="M201.8,1.2C201.8,0.8,201.8,1.6,201.8,1.2"/>
	<path id="Fill-79" class="st1" d="M201.1,1.2c0.1,0,0.1,0,0.2,0c0,0.2-0.1,0.1-0.1,0.3C201.2,1.4,201.1,1.4,201.1,1.2"/>
	<path id="Fill-80" class="st1" d="M201.3,1.3c0-0.2,0.3-0.2,0.2,0.1h-0.1C201.4,1.3,201.4,1.3,201.3,1.3"/>
	<path id="Fill-81" class="st1" d="M201.5,1.2C201.4,1.2,201.5,1.3,201.5,1.2"/>
	<path id="Fill-82" class="st1" d="M201.9,1.2c0-0.1,0.1-0.1,0.1-0.1C202,1.2,201.9,1.2,201.9,1.2"/>
	<path id="Fill-83" class="st1" d="M204.5,0.9C204.5,0.9,204.5,1.1,204.5,0.9"/>
	<path id="Fill-84" class="st1" d="M196.9,1.8C196.9,1.7,196.9,1.8,196.9,1.8"/>
	<path id="Fill-85" class="st1" d="M200,1.9L200,1.9C200,2,200,2,200,1.9"/>
	<path id="Fill-86" class="st1" d="M201.8,1.2C201.6,1.5,201.4,1.1,201.8,1.2"/>
	<path id="Fill-87" class="st1" d="M202.5,1.3C202.5,0.9,202.8,1.3,202.5,1.3"/>
	<path id="Fill-88" class="st1" d="M199.8,1.6c0-0.1,0.1-0.1,0.2-0.1C199.9,1.6,199.9,1.5,199.8,1.6"/>
	<path id="Fill-89" class="st1" d="M200,1.5C200.2,1.3,199.9,1.9,200,1.5"/>
	<path id="Fill-90" class="st1" d="M200.3,1.5C200.4,1.1,200.4,1.9,200.3,1.5"/>
	<path id="Fill-91" class="st1" d="M200.7,1.8C200.7,1.8,200.7,1.7,200.7,1.8C200.6,1.7,200.7,1.8,200.7,1.8c0,0.1-0.1,0.1-0.2,0.1
		c-0.1-0.4,0.2-0.2,0.2-0.5C200.8,1.4,200.8,1.6,200.7,1.8L200.7,1.8"/>
	<path id="Fill-92" class="st1" d="M202.6,1.2C202.6,1.4,202.5,1.3,202.6,1.2"/>
	<path id="Fill-93" class="st1" d="M197.9,2.2C197.9,2.2,197.9,2.3,197.9,2.2"/>
	<path id="Fill-94" class="st1" d="M198.5,2.2C198.4,2.1,198.5,2.2,198.5,2.2"/>
	<path id="Fill-95" class="st1" d="M198.8,2.2C198.7,2.1,198.8,2.2,198.8,2.2"/>
	<path id="Fill-96" class="st1" d="M197.9,2.2C197.7,2.3,197.9,1.9,197.9,2.2"/>
	<path id="Fill-97" class="st1" d="M198.2,2.1C198.2,2.1,198.2,2.2,198.2,2.1"/>
	<path id="Fill-98" class="st1" d="M200.2,1.6C200.1,1.6,200.1,1.4,200.2,1.6"/>
	<path id="Fill-99" class="st1" d="M200.9,1.6c0,0-0.1,0-0.1,0.1C200.6,1.6,200.9,1.3,200.9,1.6"/>
	<path id="Fill-100" class="st1" d="M201.1,1.5C201,1.5,201.1,1.6,201.1,1.5"/>
	<path id="Fill-101" class="st1" d="M197.2,2.2c0.1,0,0.1-0.1,0.2-0.1c0,0.1-0.1,0.1,0,0.3C197.2,2.4,197.2,2.3,197.2,2.2"/>
	<path id="Fill-102" class="st1" d="M197.7,2C197.7,2,197.7,2.1,197.7,2"/>
	<path id="Fill-103" class="st1" d="M198.1,2C198.1,2,198.1,2.1,198.1,2"/>
	<path id="Fill-104" class="st1" d="M197.9,2.2c0.1,0,0.1,0.1,0.2,0.1C198.1,2.4,197.8,2.4,197.9,2.2"/>
	<path id="Fill-105" class="st1" d="M199.6,1.7C199.6,1.6,199.6,1.6,199.6,1.7L199.6,1.7"/>
	<path id="Fill-106" class="st1" d="M200.2,1.6C200.3,1.6,200.1,2,200.2,1.6"/>
	<path id="Fill-107" class="st1" d="M199.7,1.5c0.1,0,0.1,0.1,0.2,0.1c-0.1,0.2-0.1,0.2-0.1,0.4c-0.1,0-0.2,0-0.3,0
		c-0.2-0.1,0.1-0.1,0.2-0.1c0-0.1-0.1-0.2-0.2-0.1c0-0.1,0.1-0.1,0.2-0.1c0,0.1,0.1,0,0,0C199.7,1.6,199.7,1.6,199.7,1.5"/>
	<path id="Fill-108" class="st1" d="M201.6,1.6C201.6,1.6,201.6,1.4,201.6,1.6"/>
	<path id="Fill-109" class="st1" d="M202.7,1.4C202.7,1.4,202.8,1.5,202.7,1.4"/>
	<path id="Fill-110" class="st1" d="M175,2.7C175,2.7,175,2.6,175,2.7"/>
	<path id="Fill-111" class="st1" d="M197.1,2.2C197.1,2.2,197.1,2.3,197.1,2.2"/>
	<path id="Fill-112" class="st1" d="M198.1,2C198.1,2,198.1,2.1,198.1,2"/>
	<path id="Fill-113" class="st1" d="M199.6,1.7C199.6,1.8,199.5,1.7,199.6,1.7"/>
	<path id="Fill-114" class="st1" d="M199.6,1.7C199.7,1.7,199.7,1.8,199.6,1.7"/>
	<path id="Fill-115" class="st1" d="M199.8,2.1c-0.1,0,0-0.3-0.1-0.3C199.8,1.4,199.9,1.9,199.8,2.1"/>
	<path id="Fill-116" class="st1" d="M200.4,1.6c-0.2,0.2-0.3,0.4-0.5,0.5C200,1.7,200.2,1.6,200.4,1.6"/>
	<path id="Fill-117" class="st1" d="M201.6,1.6C201.8,1.7,201.5,1.9,201.6,1.6"/>
	<path id="Fill-118" class="st1" d="M197.9,2c0.3-0.1,0.4,0.1,0.7,0c0.3,0.2,0.5,0.1,0.7-0.3c-0.1,0.5,0.1-0.1,0.2,0.4
		C198.8,2.2,198.5,2.3,197.9,2L197.9,2"/>
	<path id="Fill-119" class="st1" d="M202.3,1.6C202.3,1.6,202.3,1.7,202.3,1.6"/>
	<path id="Fill-120" class="st1" d="M197.3,2.2c-0.1,0.3-0.2,0.1-0.5,0.2C196.8,2.1,197.1,2.2,197.3,2.2"/>
	<path id="Fill-121" class="st1" d="M197.7,2.2C197.8,2,197.5,2.6,197.7,2.2"/>
	<path id="Fill-122" class="st1" d="M198,2.1c0,0.1,0.1,0.1,0.2,0.1c0,0.2-0.1,0.2-0.1,0.1C198,2.3,198,2.2,198,2.1"/>
	<path id="Fill-123" class="st1" d="M198.5,2.2c-0.1,0-0.1,0-0.2,0c0.1,0.1,0.2,0.1,0.2,0.2c0.2,0.1-0.5,0.2-0.4-0.1
		c0-0.2,0.1,0.1,0.2,0c0-0.1-0.1-0.2-0.2-0.2c0.1-0.3,0.2,0.1,0.3-0.2C198.5,2.1,198.5,2.1,198.5,2.2"/>
	<path id="Fill-124" class="st1" d="M199.9,1.9C200,1.5,200.1,2.2,199.9,1.9"/>
	<path id="Fill-125" class="st1" d="M202.3,1.7c0.1,0.1,0.1,0.2,0.2,0.2C202.5,2.3,202.2,1.9,202.3,1.7"/>
	<path id="Fill-126" class="st1" d="M197.9,2.3c0-0.1,0.1-0.1,0.1-0.1C198,2.3,197.9,2.3,197.9,2.3"/>
	<path id="Fill-127" class="st1" d="M198.1,2.3L198.1,2.3C198,2.4,198,2.4,198,2.6c-0.1-0.2,0.8-0.2,0.7-0.2c0-0.1,0-0.2-0.1-0.1
		V2.2c0,0,0,0,0-0.1c0,0,0,0.1,0,0.2C198.9,2.4,197.9,2.3,198.1,2.3"/>
	<path id="Fill-128" class="st1" d="M200.2,1.9C200.2,1.9,200.2,2,200.2,1.9"/>
	<path id="Fill-129" class="st1" d="M200.7,1.9C200.6,1.9,200.7,2,200.7,1.9"/>
	<path id="Fill-130" class="st1" d="M201.8,2c0-0.2,0.1-0.2,0.2-0.2C202,1.9,201.9,2,201.8,2"/>
	<path id="Fill-131" class="st1" d="M202,1.9c0-0.2,0.1,0,0.2,0C202.2,2.1,202.1,1.9,202,1.9"/>
	<path id="Fill-132" class="st1" d="M196.9,2.3C196.9,2.2,196.9,2.3,196.9,2.3"/>
	<path id="Fill-133" class="st1" d="M197.1,2.3C197.2,1.9,197.2,2.7,197.1,2.3"/>
	<path id="Fill-134" class="st1" d="M198.6,2.4c-0.1,0.3-0.2-0.1-0.3,0C198.4,2.1,198.5,2.4,198.6,2.4"/>
	<path id="Fill-135" class="st1" d="M201,2C201,1.9,201.1,2,201,2"/>
	<path id="Fill-136" class="st1" d="M201.4,2c0-0.1,0.1-0.1,0.2-0.1C201.6,2,201.5,2,201.4,2"/>
	<path id="Fill-137" class="st1" d="M200.4,2.1C200.4,1.6,200.6,2,200.4,2.1"/>
	<path id="Fill-138" class="st1" d="M202.5,1.9C202.5,1.9,202.6,2,202.5,1.9"/>
	<path id="Fill-139" class="st1" d="M196.7,2.4c0-0.2,0.2-0.1,0.3-0.1C196.8,2.6,196.8,2.6,196.7,2.4"/>
	<path id="Fill-140" class="st1" d="M197,2.3C197,2.3,197,2.4,197,2.3"/>
	<path id="Fill-141" class="st1" d="M197.2,2.2c0.1,0,0.1,0,0.2,0c0.1,0.3-0.1,0.2-0.2,0.2C197.2,2.4,197.2,2.3,197.2,2.2"/>
	<path id="Fill-142" class="st1" d="M197.4,2.5C197.5,2.1,197.5,2.8,197.4,2.5"/>
	<path id="Fill-143" class="st1" d="M198.5,2.4C198.5,2.3,198.6,2.3,198.5,2.4C198.6,2.4,198.5,2.4,198.5,2.4"/>
	<path id="Fill-144" class="st1" d="M200,2C200,2,200.1,2.1,200,2"/>
	<path id="Fill-145" class="st1" d="M201.9,1.9C201.9,2.2,201.6,1.8,201.9,1.9"/>
	<path id="Fill-146" class="st1" d="M196.4,2.4c0,0.1,0.1,0.1,0.1,0C196.7,2.5,196.3,2.8,196.4,2.4"/>
	<path id="Fill-147" class="st1" d="M196.6,2.5C196.5,2.5,196.6,2.6,196.6,2.5"/>
	<path id="Fill-148" class="st1" d="M197.6,2.4c0.1,0.2-0.1,0.6,0.2,0.6c0,0.1-0.2,0.1-0.3,0.1c0.1-0.2,0-0.5-0.2-0.4
		C197.4,2.5,197.6,2.7,197.6,2.4"/>
	<path id="Fill-149" class="st1" d="M198.7,2.6c0,0.2-0.2,0-0.2,0.1s-0.2,0.1-0.1,0.3c-0.1,0-0.1,0.1-0.2,0.1c0-0.2,0.1-0.2,0.2-0.4
		c-0.1-0.2-0.2,0.1-0.2-0.1C198.2,2.2,198.5,2.7,198.7,2.6"/>
	<path id="Fill-150" class="st1" d="M198.6,2.4c0.1,0,0.1,0.1,0.2,0.1c0,0.1-0.1,0.1,0,0.3l-0.1-0.1C198.6,2.5,198.6,2.4,198.6,2.4"
		/>
	<path id="Fill-151" class="st1" d="M200.3,2.1C200.3,2,200.3,2.1,200.3,2.1"/>
	<path id="Fill-152" class="st1" d="M200.4,2C200.4,2.1,200.3,2.1,200.4,2"/>
	<path id="Fill-153" class="st1" d="M197.1,2.6c-0.1,0,0,0.2-0.1,0.2c0-0.1-0.1,0,0,0v0.1c-0.1,0-0.1,0-0.1-0.1l-0.1,0.1
		c0-0.2-0.1,0.1-0.2,0V2.8c0,0,0-0.1,0.1-0.1c0.1,0.2,0.1-0.2,0.2-0.1c0,0.1,0,0.1,0,0.1C197,2.7,197,2.6,197.1,2.6
		c-0.1-0.1-0.2-0.1-0.3-0.1C196.9,2.3,197.1,2.4,197.1,2.6C197.1,2.5,197.1,2.6,197.1,2.6"/>
	<path id="Fill-154" class="st1" d="M197.9,2.8c0-0.1,0-0.1,0-0.2c0.1-0.2,0.3-0.3,0.4,0.2C198.1,2.6,198,2.7,197.9,2.8"/>
	<path id="Fill-155" class="st1" d="M198.6,2.5c0-0.1,0.1-0.1,0.2-0.1C198.7,2.5,198.7,2.5,198.6,2.5"/>
	<path id="Fill-156" class="st1" d="M201.8,2.1C201.8,2,201.8,2.1,201.8,2.1"/>
	<path id="Fill-157" class="st1" d="M196.5,2.6C196.5,2.6,196.5,2.7,196.5,2.6"/>
	<path id="Fill-158" class="st1" d="M196.6,2.6C196.6,2.6,196.5,2.6,196.6,2.6L196.6,2.6"/>
	<path id="Fill-159" class="st1" d="M196.8,2.6C196.8,2.5,196.9,2.5,196.8,2.6C196.9,2.6,196.8,2.6,196.8,2.6"/>
	<path id="Fill-160" class="st1" d="M197.1,2.6c0.1-0.2,0.2-0.1,0.3-0.1c0,0.2-0.1,0.1-0.2,0.1c0,0.6,0.1,0.3,0.2,0.6
		c-0.2-0.1-0.3,0.1-0.5,0c0-0.2,0.1-0.1,0.2,0C197.2,3,197.3,2.6,197.1,2.6"/>
	<path id="Fill-161" class="st1" d="M198,2.7c0,0.1,0,0.1,0.1,0.1C198,3,197.9,2.9,197.7,3c0-0.2,0.3-0.4-0.1-0.3
		c-0.1-0.2,0.2-0.1,0.3-0.2c0,0.1-0.1,0.2,0,0.3C197.9,2.8,198,2.8,198,2.7"/>
	<path id="Fill-162" class="st1" d="M197.9,2.6C197.8,2.6,197.9,2.5,197.9,2.6"/>
	<path id="Fill-163" class="st1" d="M198.1,2.5c0.1,0.3,0.5-0.2,0.5,0.3c-0.3,0-0.3,0-0.5-0.1C198,2.6,198.1,2.5,198.1,2.5"/>
	<path id="Fill-164" class="st1" d="M199.6,2.5c-0.1-0.2-0.2,0.1-0.3,0C199.3,2.2,199.7,2,199.6,2.5"/>
	<path id="Fill-165" class="st1" d="M199.6,2.3c0-0.1,0.1-0.1,0.1-0.1C199.7,2.3,199.7,2.3,199.6,2.3"/>
	<path id="Fill-166" class="st1" d="M200.2,2.3c-0.1,0-0.1,0.1-0.2,0.1C200.1,2.6,200.1,2.5,200.2,2.3c0,0.6-0.4,0.3-0.5,0.3
		C199.9,2.5,199.9,2.1,200.2,2.3C200.2,2.2,200.2,2.2,200.2,2.3"/>
	<path id="Fill-167" class="st1" d="M201.2,2.1C201.2,2.1,201.3,2.2,201.2,2.1"/>
	<path id="Fill-168" class="st1" d="M201.9,2.1C201.9,2,202,2.1,201.9,2.1"/>
	<path id="Fill-169" class="st1" d="M198.7,2.6c0-0.1,0.1-0.1,0.1,0C198.8,2.8,198.8,2.6,198.7,2.6"/>
	<path id="Fill-170" class="st1" d="M198.8,2.6c-0.1,0.1-0.2,0-0.4,0.1C198.5,2.6,198.7,2.4,198.8,2.6"/>
	<path id="Fill-171" class="st1" d="M198.8,2.1C198.8,1.7,198.7,2.8,198.8,2.1"/>
	<path id="Fill-172" class="st1" d="M198.9,2.1C198.9,2,199,2,199,2C199,2.1,199,2.1,198.9,2.1"/>
	<path id="Fill-173" class="st1" d="M200,2.3L200,2.3C200,2.2,200.1,2.3,200,2.3"/>
	<path id="Fill-174" class="st1" d="M197,2.6L197,2.6C197.1,2.6,197,2.7,197,2.6"/>
	<path id="Fill-176" class="st1" d="M200.1,2c0.2-0.1,0.2,0.3,0.1,0.4C200.1,2.4,200.1,2.2,200.1,2"/>
	<path id="Fill-177" class="st1" d="M200.4,2.1C200.5,1.7,200.5,2.6,200.4,2.1"/>
	<path id="Fill-178" class="st1" d="M198.5,2.7c0.1,0,0.1,0.2,0.2,0c0.2,0.2-0.1,0.2-0.1,0.4C198.4,3.1,198.5,2.8,198.5,2.7"/>
	<path id="Fill-179" class="st1" d="M199.1,2.6c-0.2,0,0-0.3-0.1-0.3c0-0.2,0.2-0.1,0.3-0.1c0,0.1-0.1,0.1-0.2,0.1
		C199.1,2.4,199.1,2.5,199.1,2.6"/>
	<path id="Fill-180" class="st1" d="M197.1,2.8C197.3,2.5,197,3.1,197.1,2.8"/>
	<path id="Fill-181" class="st1" d="M198.8,2.8C198.7,2.8,198.8,2.9,198.8,2.8"/>
	<path id="Fill-182" class="st1" d="M198.6,2.7c0,0.2,0,0.3-0.1,0.4c-0.1,0-0.1-0.2-0.2-0.2C198.4,2.8,198.5,2.7,198.6,2.7"/>
	<path id="Fill-183" class="st1" d="M198.6,2.8C198.6,2.7,198.6,2.8,198.6,2.8"/>
	<path id="Fill-184" class="st1" d="M198.9,2.8L198.9,2.8C198.8,2.8,198.9,2.8,198.9,2.8c0,0.1,0,0.2-0.1,0.2c0-0.1-0.1,0,0,0
		c0,0.2-0.2,0-0.3,0.2c0,0-0.1,0-0.1-0.1V3c0,0,0.1,0,0.1,0.1c0.1,0,0-0.1,0.1-0.1c0,0.1,0.1,0,0,0V2.9c0.1,0,0.2,0,0.2-0.1
		C198.9,2.7,199,2.7,198.9,2.8C199,2.8,198.9,2.8,198.9,2.8"/>
	<path id="Fill-185" class="st1" d="M198.4,2.4C198.3,2.4,198.4,2.2,198.4,2.4"/>
	<path id="Fill-186" class="st1" d="M198.6,2.4c0,0.1-0.2,0.1-0.2,0C198.5,2.3,198.5,2.2,198.6,2.4"/>
	<path id="Fill-187" class="st1" d="M201.9,2.1c0.2-0.1,0.1,0.1,0.3,0.1c-0.1,0.3-0.2,0.3-0.3,0.2C201.9,2.3,201.9,2.3,201.9,2.1"/>
	<path id="Fill-188" class="st1" d="M202.6,2.1C202.5,2,202.6,2.1,202.6,2.1"/>
	<path id="Fill-189" class="st1" d="M197,2.9C197,2.9,197.1,2.8,197,2.9C197.1,2.9,197.1,2.9,197,2.9"/>
	<path id="Fill-190" class="st1" d="M198.5,2.8c0,0.1-0.1,0.2,0,0.2c0,0.3-0.2-0.3-0.2,0.2c0-0.1-0.2,0-0.2-0.3
		C198.3,3,198.3,2.7,198.5,2.8"/>
	<path id="Fill-191" class="st1" d="M199.3,2.4C199.2,2.4,199.3,2.2,199.3,2.4"/>
	<path id="Fill-192" class="st1" d="M200.9,2.3C200.7,2.7,200.7,2,200.9,2.3"/>
	<path id="Fill-193" class="st1" d="M202.8,2.1C202.7,2.5,202.6,1.8,202.8,2.1"/>
	<path id="Fill-194" class="st1" d="M203.2,2C203.4,2,203.1,2.5,203.2,2"/>
	<path id="Fill-195" class="st1" d="M197.1,2.9c0,0.1,0,0.2,0,0.3c-0.1,0.1-0.2,0.2-0.3,0.2C196.9,3.1,197,3.1,197.1,2.9"/>
	<path id="Fill-196" class="st1" d="M196.7,2.9L196.7,2.9C196.6,2.9,196.6,2.9,196.7,2.9"/>
	<path id="Fill-197" class="st1" d="M196.8,2.9C196.8,2.9,196.8,2.8,196.8,2.9C196.8,2.9,196.8,3,196.8,2.9"/>
	<path id="Fill-198" class="st1" d="M197.3,2.9C197.3,2.5,197.3,3.3,197.3,2.9"/>
	<path id="Fill-199" class="st1" d="M198.7,3C198.6,3.3,198.6,2.7,198.7,3"/>
	<path id="Fill-200" class="st1" d="M198,3c0-0.1,0.1-0.1,0.1-0.1S198,2.9,198,3"/>
	<path id="Fill-201" class="st1" d="M199.1,2.5c0.1,0,0.1-0.1,0.2,0C199.3,2.6,199.1,2.6,199.1,2.5"/>
	<path id="Fill-202" class="st1" d="M200.4,2.4c0-0.1,0.1-0.1,0.1,0C200.5,2.6,200.5,2.4,200.4,2.4"/>
	<path id="Fill-203" class="st1" d="M200.7,2.3C200.7,2.2,200.8,2.4,200.7,2.3"/>
	<path id="Fill-204" class="st1" d="M200.8,2.3c0-0.1,0.1-0.1,0.1-0.1C200.9,2.3,200.9,2.3,200.8,2.3"/>
	<path id="Fill-205" class="st1" d="M201.7,2.2C201.7,2.2,201.7,2.3,201.7,2.2"/>
	<path id="Fill-206" class="st1" d="M196.7,3C196.7,2.9,196.8,2.9,196.7,3C196.8,3,196.8,3,196.7,3"/>
	<path id="Fill-207" class="st1" d="M197.4,2.9C197.4,2.9,197.5,3,197.4,2.9"/>
	<path id="Fill-208" class="st1" d="M197.8,3.1c0-0.1,0.1-0.1,0.1-0.1C197.9,3.1,197.8,3.1,197.8,3.1"/>
	<path id="Fill-209" class="st1" d="M198.1,3L198.1,3C198,3.1,198,3,198.1,3"/>
	<path id="Fill-210" class="st1" d="M198.4,3C198.5,2.9,198.4,3.1,198.4,3"/>
	<path id="Fill-211" class="st1" d="M197.8,3C197.8,3,197.8,3.1,197.8,3"/>
	<path id="Fill-212" class="st1" d="M198.5,2.6C198.5,2.4,198.6,2.5,198.5,2.6"/>
	<path id="Fill-213" class="st1" d="M198.6,2.6c0-0.1,0.1-0.1,0.1,0C198.7,2.7,198.7,2.6,198.6,2.6"/>
	<path id="Fill-214" class="st1" d="M198.9,2.5C199.2,2.4,198.9,2.8,198.9,2.5"/>
	<path id="Fill-215" class="st1" d="M199.8,2.5C199.8,2.4,199.8,2.6,199.8,2.5"/>
	<path id="Fill-216" class="st1" d="M201.4,2.4C201.4,2.4,201.5,2.5,201.4,2.4"/>
	<path id="Fill-217" class="st1" d="M202.2,2.4C202.2,2.3,202.2,2.4,202.2,2.4"/>
	<path id="Fill-218" class="st1" d="M198.1,3L198.1,3c0.1,0.1,0.1,0.1,0.1,0.2c-0.1,0.1,0,0.1,0,0c0.1-0.2,0.1,0,0.2,0
		c-0.1,0.3-0.2,0.5-0.3,0.2C198,3.3,198,3.2,198.1,3"/>
	<path id="Fill-219" class="st1" d="M198.5,2.6C198.5,2.7,198.4,2.6,198.5,2.6"/>
	<path id="Fill-220" class="st1" d="M200.6,2.6c0.1-0.2,0.5-0.2,0.5,0.2C201,2.6,200.8,2.6,200.6,2.6"/>
	<path id="Fill-221" class="st1" d="M198,3.2C197.9,3.1,198,3.2,198,3.2"/>
	<path id="Fill-222" class="st1" d="M198.3,3.2C198.5,2.9,198.2,3.5,198.3,3.2"/>
	<path id="Fill-223" class="st1" d="M198.6,2.7C198.6,2.6,198.6,2.8,198.6,2.7"/>
	<path id="Fill-224" class="st1" d="M199,2.7C198.9,2.6,199,2.7,199,2.7"/>
	<path id="Fill-225" class="st1" d="M199.6,2.7c0.1,0.1,0.1,0.1,0.2-0.1C200,2.7,199.5,3.2,199.6,2.7"/>
	<path id="Fill-226" class="st1" d="M200.2,2.6c0-0.1,0.1-0.1,0.1-0.1C200.3,2.6,200.2,2.6,200.2,2.6"/>
	<path id="Fill-227" class="st1" d="M201.3,2.6C201.2,2.5,201.3,2.6,201.3,2.6"/>
	<path id="Fill-228" class="st1" d="M202.2,2.6c-0.2,0.2-0.3,0-0.5,0.1C201.7,2.4,202.1,2.4,202.2,2.6"/>
	<path id="Fill-229" class="st1" d="M197.7,3.3C197.6,3.7,197.6,2.8,197.7,3.3"/>
	<path id="Fill-230" class="st1" d="M197.6,3.3C197.6,3.2,197.7,3.2,197.6,3.3"/>
	<path id="Fill-231" class="st1" d="M199.3,2.7c0-0.1,0.1-0.1,0.1-0.1C199.4,2.7,199.4,2.7,199.3,2.7"/>
	<path id="Fill-232" class="st1" d="M198.8,3.1C198.8,3.1,198.8,3.2,198.8,3.1"/>
	<path id="Fill-233" class="st1" d="M198.4,2.8C198.3,2.7,198.4,2.8,198.4,2.8"/>
	<path id="Fill-234" class="st1" d="M199.1,2.8c0-0.1,0.1-0.1,0.2-0.1C199.3,2.8,199.2,2.8,199.1,2.8"/>
	<path id="Fill-235" class="st1" d="M201.6,2.6c0,0.1-0.1,0.2-0.2,0.2c0-0.1,0.1-0.2,0-0.2C201.4,2.5,201.5,2.6,201.6,2.6"/>
	<path id="Fill-236" class="st1" d="M201.5,2.6c0-0.1,0.1-0.1,0.1,0C201.6,2.6,201.6,2.6,201.5,2.6"/>
	<path id="Fill-237" class="st1" d="M200.6,2.5c0,0.1,0,0.1,0,0.2c-0.1,0,1.6,0,1.6-0.1C202.2,2.5,200.6,2.5,200.6,2.5"/>
	<path id="Fill-239" class="st1" d="M201.4,2.7C201.4,2.3,201.7,2.7,201.4,2.7"/>
	<path id="Fill-240" class="st1" d="M202.2,2.5C202.2,2.5,202.2,2.6,202.2,2.5"/>
	<path id="Fill-241" class="st1" d="M196.9,3.3C196.8,3.2,196.9,3.3,196.9,3.3"/>
	<path id="Fill-242" class="st1" d="M197.5,3.3C197.5,3.3,197.5,3.2,197.5,3.3"/>
	<path id="Fill-243" class="st1" d="M197.6,3.3C197.6,3.4,197.6,3.3,197.6,3.3"/>
	<path id="Fill-244" class="st1" d="M197.8,3.3C197.9,3,197.9,3.7,197.8,3.3"/>
	<path id="Fill-245" class="st1" d="M198.4,3.2C198.4,3.2,198.5,3.3,198.4,3.2"/>
	<path id="Fill-246" class="st1" d="M200.9,2.7C201.1,2.5,200.7,3.1,200.9,2.7"/>
	<path id="Fill-247" class="st1" d="M201.6,2.6C201.7,2.6,201.6,2.8,201.6,2.6"/>
	<path id="Fill-248" class="st1" d="M202.1,2.7c0-0.1,0.1-0.1,0.1-0.1C202.2,2.7,202.1,2.7,202.1,2.7"/>
	<path id="Fill-249" class="st1" d="M197.5,3.3C197.6,3.3,197.6,3.5,197.5,3.3"/>
	<path id="Fill-250" class="st1" d="M197.7,3.4C197.8,3.1,197.8,3.8,197.7,3.4"/>
	<path id="Fill-251" class="st1" d="M197.9,3.4c0-0.1,0.1-0.1,0.2-0.1C198,3.4,198,3.4,197.9,3.4"/>
	<path id="Fill-252" class="st1" d="M198.1,3.3C198.1,3.7,197.9,3.3,198.1,3.3"/>
	<path id="Fill-253" class="st1" d="M200.2,2.9C200,3,199.7,3,199.6,3C199.8,2.8,200.1,2.7,200.2,2.9"/>
	<path id="Fill-254" class="st1" d="M201.2,2.8c0-0.2,0.3-0.2,0.2,0.1C201.4,2.9,201.2,2.8,201.2,2.8"/>
	<path id="Fill-255" class="st1" d="M200.7,2.6C200.7,2.6,200.7,2.8,200.7,2.6"/>
	<path id="Fill-256" class="st1" d="M201.8,2.7C201.8,2.7,201.8,2.5,201.8,2.7"/>
	<path id="Fill-257" class="st1" d="M201.9,2.7C201.9,2.6,201.9,2.7,201.9,2.7"/>
	<path id="Fill-258" class="st1" d="M202.5,2.6C202.4,2.6,202.5,2.7,202.5,2.6"/>
	<path id="Fill-259" class="st1" d="M202.8,2.5c0.1,0,0,0.2,0.1,0.2C202.9,3,202.7,2.8,202.8,2.5"/>
	<path id="Fill-260" class="st1" d="M203.3,2.6C203.3,2.5,203.4,2.7,203.3,2.6"/>
	<path id="Fill-261" class="st1" d="M197.1,3.4C197.1,3.4,197.2,3.5,197.1,3.4"/>
	<path id="Fill-262" class="st1" d="M197.3,3.5c0-0.1,0.1-0.1,0.1-0.1C197.4,3.4,197.3,3.4,197.3,3.5"/>
	<path id="Fill-263" class="st1" d="M197.4,3.4C197.5,3.1,197.3,4.1,197.4,3.4"/>
	<path id="Fill-264" class="st1" d="M196.9,3.4c0,0.2-0.2,0-0.3,0.1C196.7,3.4,196.9,3.3,196.9,3.4"/>
	<path id="Fill-265" class="st1" d="M196.8,3.4C196.9,3.1,197.1,3.5,196.8,3.4"/>
	<path id="Fill-266" class="st1" d="M197,3.4C196.9,3.3,197,3.4,197,3.4"/>
	<path id="Fill-267" class="st1" d="M196.9,3.4C196.9,3.1,197,3.7,196.9,3.4"/>
	<path id="Fill-268" class="st1" d="M197.1,3.3C197.1,3.3,197.2,3.4,197.1,3.3"/>
	<path id="Fill-269" class="st1" d="M197.6,3.4C197.6,3.4,197.7,3.5,197.6,3.4"/>
	<path id="Fill-270" class="st1" d="M200.2,2.9c0-0.2,0.3-0.2,0.2,0.1L200.2,2.9C200.2,3,200.2,2.9,200.2,2.9"/>
	<path id="Fill-271" class="st1" d="M200.7,2.9c0-0.1,0.1-0.1,0.1-0.1C200.8,2.9,200.7,2.9,200.7,2.9"/>
	<path id="Fill-272" class="st1" d="M200.8,2.8c0-0.2,0.2-0.1,0.3-0.1C201.1,2.9,200.9,2.8,200.8,2.8"/>
	<path id="Fill-273" class="st1" d="M201.6,2.7C201.6,2.7,201.6,2.8,201.6,2.7"/>
	<path id="Fill-274" class="st1" d="M201.8,2.7C202,2.7,201.8,3.1,201.8,2.7"/>
	<path id="Fill-275" class="st1" d="M202,2.8c0-0.1,0.1-0.1,0.1-0.1S202.1,2.7,202,2.8"/>
	<path id="Fill-276" class="st1" d="M202.3,2.7c0-0.1,0.1-0.1,0.1-0.1C202.4,2.7,202.3,2.7,202.3,2.7"/>
	<path id="Fill-277" class="st1" d="M202.6,2.7C202.6,2.7,202.6,2.8,202.6,2.7"/>
	<path id="Fill-278" class="st1" d="M197.8,3.4c0.2,0.1,0.1,0.1,0.3,0C198.1,3.8,197.8,3.8,197.8,3.4"/>
	<path id="Fill-279" class="st1" d="M197.8,3.5c0-0.1,0.1-0.1,0.1,0C197.9,3.5,197.8,3.5,197.8,3.5"/>
	<path id="Fill-280" class="st1" d="M200.4,3c0-0.1,0.1-0.1,0.2-0.1C200.6,3,200.5,3,200.4,3"/>
	<path id="Fill-281" class="st1" d="M201.8,2.9c0-0.1,0.1-0.1,0.1-0.1C201.9,2.9,201.9,2.9,201.8,2.9"/>
	<path id="Fill-282" class="st1" d="M202.3,2.9C202.3,2.8,202.3,2.9,202.3,2.9"/>
	<path id="Fill-283" class="st1" d="M201.9,2.8c0-0.1,0.1-0.1,0.1-0.1C202,2.8,201.9,2.8,201.9,2.8"/>
	<path id="Fill-284" class="st1" d="M202.5,2.8C202.5,2.7,202.6,2.8,202.5,2.8"/>
	<path id="Fill-285" class="st1" d="M202.9,2.8c0-0.1,0.1-0.1,0.1-0.1C203,2.8,202.9,2.8,202.9,2.8"/>
	<path id="Fill-286" class="st1" d="M199.9,3.2C199.7,3.2,199.9,2.7,199.9,3.2"/>
	<path id="Fill-287" class="st1" d="M201.6,2.9C201.6,2.8,201.7,3,201.6,2.9"/>
	<path id="Fill-288" class="st1" d="M202.2,2.9C202.2,2.8,202.2,2.9,202.2,2.9"/>
	<path id="Fill-289" class="st1" d="M196.4,3.8L196.4,3.8c0-0.1,0-0.2,0.1-0.2C196.4,3.7,196.4,3.7,196.4,3.8"/>
	<path id="Fill-290" class="st1" d="M197.1,3.6C197.1,3.2,197.1,3.9,197.1,3.6"/>
	<path id="Fill-291" class="st1" d="M198.1,3.6C198.1,3.5,198.1,3.6,198.1,3.6"/>
	<path id="Fill-292" class="st1" d="M198.5,3.6C198.3,3.7,198.5,3.3,198.5,3.6"/>
	<path id="Fill-293" class="st1" d="M200.2,3.1C200.2,3.1,200.2,3.2,200.2,3.1"/>
	<path id="Fill-294" class="st1" d="M200.9,3.1C200.9,3,201,3.1,200.9,3.1"/>
	<path id="Fill-295" class="st1" d="M201.5,3.1C201.8,2.8,202,3.4,201.5,3.1"/>
	<path id="Fill-296" class="st1" d="M200.4,3.1c0.1,0,0,0.2,0.1,0.2C200.5,3.6,200.3,3.3,200.4,3.1"/>
	<path id="Fill-297" class="st1" d="M200.6,3.2C200.6,3.1,200.6,3.1,200.6,3.2"/>
	<path id="Fill-298" class="st1" d="M200.7,3.2C200.7,3.1,200.7,3.2,200.7,3.2"/>
	<path id="Fill-299" class="st1" d="M200.8,3.2C200.8,3,200.9,3.1,200.8,3.2"/>
	<path id="Fill-300" class="st1" d="M201.8,3.1C201.8,3.1,201.9,3.2,201.8,3.1"/>
	<path id="Fill-301" class="st1" d="M201.9,3.1C201.9,3.1,201.9,3.2,201.9,3.1"/>
	<path id="Fill-302" class="st1" d="M201.2,3.1c0-0.1,0.1-0.1,0.2-0.1C201.3,3.1,201.2,3.1,201.2,3.1"/>
	<path id="Fill-303" class="st1" d="M201.3,3C201.3,3,201.3,3.1,201.3,3"/>
	<path id="Fill-304" class="st1" d="M175.3,4.4C175.4,4,175.4,4.7,175.3,4.4"/>
	<path id="Fill-305" class="st1" d="M196.4,3.7C196.4,3.8,196.3,3.8,196.4,3.7C196.3,3.7,196.3,3.7,196.4,3.7"/>
	<path id="Fill-306" class="st1" d="M196.5,3.7C196.7,3.6,196.5,3.9,196.5,3.7"/>
	<path id="Fill-307" class="st1" d="M196.7,3.7C196.6,3.7,196.7,3.8,196.7,3.7"/>
	<path id="Fill-308" class="st1" d="M200.6,3.2c0,0.2,0.2,0.1,0.3,0c0.1,0,0.3,0.2,0.4,0.1C201.3,3.6,200.3,3.6,200.6,3.2"/>
	<path id="Fill-309" class="st1" d="M201.8,3.3c0,0.3-0.5,0.2-0.5-0.1C201.5,3.1,201.7,3.3,201.8,3.3"/>
	<path id="Fill-310" class="st1" d="M200.9,3.3C200.8,2.8,201.1,3.2,200.9,3.3"/>
	<path id="Fill-311" class="st1" d="M201,3.1C201,3.1,201,3.2,201,3.1"/>
	<path id="Fill-312" class="st1" d="M201.5,3c0.1,0,0.1,0.1,0,0.3c0.5,0,0.7,0,1,0c-0.1,0.4-0.4,0.1-0.5,0c-0.3-0.2-0.8,0.5-1-0.1
		C201.2,3.2,201.5,3.5,201.5,3"/>
	<path id="Fill-313" class="st1" d="M201.7,3.3c0-0.2,0.2,0,0.3-0.1c0.2,0-0.4,0.2-0.1,0.4C201.8,4,201.8,3.3,201.7,3.3"/>
	<path id="Fill-314" class="st1" d="M202,3.3c0-0.2,0.5-0.2,0.3,0.2C202.2,3.3,202.1,3.5,202,3.3"/>
	<path id="Fill-315" class="st1" d="M200.9,3.2c0,0.4,1.4,0.2,1.4,0.2C202.3,3,200.8,3.3,200.9,3.2"/>
	<path id="Fill-316" class="st1" d="M203.1,3.1c0.2,0.4-0.4,0.6-0.4,0.4C202.6,2.8,203,3.9,203.1,3.1"/>
	<path id="Fill-317" class="st1" d="M203.2,3.2c0-0.1,0.1-0.1,0.2-0.1C203.4,3.2,203.3,3.2,203.2,3.2"/>
	<path id="Fill-318" class="st1" d="M198.8,3.8c0.2,0.2-0.3,0.4-0.2,0C198.6,3.8,198.7,3.8,198.8,3.8"/>
	<path id="Fill-319" class="st1" d="M199.6,3.8C199.6,3.8,199.7,3.9,199.6,3.8"/>
	<path id="Fill-320" class="st1" d="M199.8,3.8C199.8,3.8,199.8,3.9,199.8,3.8"/>
	<path id="Fill-321" class="st1" d="M200,3.8C199.9,3.8,200,3.9,200,3.8"/>
	<path id="Fill-322" class="st1" d="M199.9,3.4h0.1c0,0.1,0,0.1,0,0.2h-0.1C199.9,3.5,199.9,3.5,199.9,3.4"/>
	<path id="Fill-323" class="st1" d="M203.5,3.4c0,0-0.1,0-0.1,0.1C203.3,3.4,203.5,2.8,203.5,3.4"/>
	<path id="Fill-324" class="st1" d="M197,4C196.9,3.9,197,4,197,4"/>
	<path id="Fill-325" class="st1" d="M197.4,3.8c-0.1,0.4-0.2,0-0.3,0.2c0,0.2,0.2-0.1,0.2,0.3c-0.1-0.1-0.2-0.1-0.3-0.3
		C197,3.8,197.2,3.8,197.4,3.8"/>
	<path id="Fill-326" class="st1" d="M198.7,4C198.7,3.9,198.7,3.9,198.7,4L198.7,4"/>
	<path id="Fill-327" class="st1" d="M198,4C198.2,3.9,197.5,4,198,4"/>
	<path id="Fill-328" class="st1" d="M200,3.9C200,3.8,200.1,3.9,200,3.9"/>
	<path id="Fill-329" class="st1" d="M200.4,3.6C200.5,3.1,200.5,3.9,200.4,3.6"/>
	<path id="Fill-330" class="st1" d="M197.7,4L197.7,4C197.6,4.1,197.6,4,197.7,4"/>
	<path id="Fill-331" class="st1" d="M196.9,4C196.9,4.2,196.7,3.9,196.9,4"/>
	<path id="Fill-332" class="st1" d="M196.7,4.1c0.1-0.1,0.3-0.3,0.4,0C197,4.3,196.8,4.2,196.7,4.1"/>
	<path id="Fill-333" class="st1" d="M197.4,4C197.4,3.9,197.5,4,197.4,4"/>
	<path id="Fill-334" class="st1" d="M198.6,4C198.6,4,198.7,4,198.6,4C198.7,4,198.6,4.1,198.6,4"/>
	<path id="Fill-335" class="st1" d="M198.7,4C198.8,4,198.7,4.1,198.7,4"/>
	<path id="Fill-336" class="st1" d="M199.2,4C199.3,3.6,199.3,4.4,199.2,4"/>
	<path id="Fill-337" class="st1" d="M200.4,3.9C200.4,3.9,200.5,4,200.4,3.9"/>
	<path id="Fill-338" class="st1" d="M200.6,3.9c0-0.1,0.1-0.1,0.1-0.1C200.7,3.9,200.6,3.9,200.6,3.9"/>
	<path id="Fill-339" class="st1" d="M201.1,3.8L201.1,3.8"/>
	<path id="Fill-340" class="st1" d="M203.2,3.4c0-0.1,0.1-0.1,0.2-0.1C203.4,3.4,203.3,3.4,203.2,3.4"/>
	<path id="Fill-341" class="st1" d="M203.5,3.4L203.5,3.4c0.1-0.1,0.1,0,0.2,0.1C203.6,3.5,203.5,3.4,203.5,3.4"/>
	<path id="Fill-342" class="st1" d="M197.8,4h0.1c-0.1,0.3-0.4,0.5-0.5,0.2C197.4,4,197.8,4.3,197.8,4"/>
	<path id="Fill-343" class="st1" d="M196.7,4C196.7,4.3,196.5,4,196.7,4"/>
	<path id="Fill-344" class="st1" d="M196.7,4.1C196.4,4.2,196.6,3.8,196.7,4.1"/>
	<path id="Fill-345" class="st1" d="M198,4.1c0,0.3-0.1,0.2-0.1,0H198"/>
	<path id="Fill-346" class="st1" d="M198.6,4.1c0,0.2-0.3,0.1-0.4,0.1C198.2,4,198.5,4,198.6,4.1"/>
	<path id="Fill-347" class="st1" d="M198.5,4.1C198.5,4,198.6,4.1,198.5,4.1"/>
	<path id="Fill-348" class="st1" d="M198.6,4.1c0-0.2,0.2-0.1,0.3-0.1C198.8,4.2,198.7,4,198.6,4.1"/>
	<path id="Fill-349" class="st1" d="M199,4.1C199,4,199,4,199,4.1C199.1,4.1,199,4,199,4.1"/>
	<path id="Fill-350" class="st1" d="M199.1,4C199.1,4,199.2,4.1,199.1,4"/>
	<path id="Fill-351" class="st1" d="M199.4,4C199.4,3.7,199.4,4.4,199.4,4"/>
	<path id="Fill-352" class="st1" d="M199.9,4C199.9,4,200,4,199.9,4"/>
	<path id="Fill-353" class="st1" d="M202.1,3.9C202.1,3.8,202.1,3.9,202.1,3.9"/>
	<path id="Fill-354" class="st1" d="M203.4,3.4C203.4,3.4,203.5,3.4,203.4,3.4C203.5,3.4,203.4,3.5,203.4,3.4"/>
	<path id="Fill-355" class="st1" d="M196.9,4.2C197.2,3.9,197.3,4.5,196.9,4.2"/>
	<path id="Fill-356" class="st1" d="M196.7,4.1h0.1C196.8,4.2,196.7,4.2,196.7,4.1"/>
	<path id="Fill-357" class="st1" d="M197.4,4.1C197.5,3.9,197.3,4.4,197.4,4.1"/>
	<path id="Fill-358" class="st1" d="M198.1,4.2C198.1,4.1,198.2,4.1,198.1,4.2C198.2,4.2,198.2,4.1,198.1,4.2"/>
	<path id="Fill-359" class="st1" d="M200.1,4.1C200.2,3.8,200.4,4.2,200.1,4.1"/>
	<path id="Fill-360" class="st1" d="M200.3,4c0.1,0.1,0,0.5-0.1,0.4C200.2,4.2,200.3,4.2,200.3,4"/>
	<path id="Fill-361" class="st1" d="M200.7,4C200.7,4,200.8,4.1,200.7,4"/>
	<path id="Fill-362" class="st1" d="M203.6,3.4C203.6,3.4,203.6,3.6,203.6,3.4"/>
	<path id="Fill-363" class="st1" d="M196.8,4.4c0,0-0.1,0-0.2,0c0-0.3,0.2-0.2,0.4-0.3C197,4.4,196.8,4.2,196.8,4.4"/>
	<path id="Fill-364" class="st1" d="M197.2,4.2C197.2,4.1,197.3,4.2,197.2,4.2"/>
	<path id="Fill-365" class="st1" d="M197.9,4.3C197.9,4.2,197.9,4.2,197.9,4.3L197.9,4.3"/>
	<path id="Fill-366" class="st1" d="M199.5,4.1C199.5,4.1,199.6,4.2,199.5,4.1"/>
	<path id="Fill-367" class="st1" d="M202.1,4C202.2,3.6,202.1,4.5,202.1,4"/>
	<path id="Fill-368" class="st1" d="M197.9,4.2c0.1,0.1,0,0.2,0,0.4c-0.1,0-0.1-0.1-0.1-0.2c0,0,0,0,0,0.1
		C197.5,4.3,197.9,4.4,197.9,4.2"/>
	<path id="Fill-369" class="st1" d="M198.6,4.2C198.4,4.5,198.1,4.1,198.6,4.2"/>
	<path id="Fill-370" class="st1" d="M198.7,4.2c0.1,0.2,0.1-0.1,0.3,0C199,4.3,198.7,4.6,198.7,4.2"/>
	<path id="Fill-371" class="st1" d="M199.4,4.2C199.4,4.2,199.4,4.3,199.4,4.2"/>
	<path id="Fill-372" class="st1" d="M202.2,4.1C202.1,4.4,202,3.8,202.2,4.1"/>
	<path id="Fill-373" class="st1" d="M202.2,4.1C202.2,4,202.3,4.1,202.2,4.1"/>
	<path id="Fill-374" class="st1" d="M202.3,4.1C202.3,4,202.4,4.1,202.3,4.1"/>
	<path id="Fill-375" class="st1" d="M201.2,4.1c-0.1,0-0.1,0.1-0.2,0.1C201.1,4.1,201.1,4,201.2,4.1C201.2,4,201.2,4,201.2,4.1"/>
	<path id="Fill-376" class="st1" d="M201.6,4.1c-0.1,0-0.2,0-0.2-0.2h0.1C201.6,4,201.6,4.1,201.6,4.1L201.6,4.1"/>
	<path id="Fill-377" class="st1" d="M201.6,4C201.9,4,201.6,4.5,201.6,4"/>
	<path id="Fill-378" class="st1" d="M202,4.2c0.1,0,0.1-0.2,0.1-0.3c0.1,0,0.1,0.2,0.1,0.2C202.1,4.2,202.1,4.3,202,4.2
		C202,4.3,202,4.3,202,4.2"/>
	<path id="Fill-379" class="st1" d="M200.1,4.3C200.1,4,200.3,4.4,200.1,4.3"/>
	<path id="Fill-380" class="st1" d="M201.1,4.1c0,0.3,1.4,0,1.3,0C202.4,3.9,201,4.1,201.1,4.1"/>
	<path id="Fill-381" class="st1" d="M201.2,4c0.1,0.1,0.4-0.2,0.4,0.2C201.4,4,201.2,4.6,201.2,4"/>
	<path id="Fill-382" class="st1" d="M201.8,4.1C201.8,4,201.9,4,201.8,4.1"/>
	<path id="Fill-383" class="st1" d="M202.2,4.2C202.2,3.8,202.4,4.1,202.2,4.2"/>
	<path id="Fill-384" class="st1" d="M202.7,4c0.1,0.1,0,0.2,0,0.3C202.6,4.2,202.7,4.1,202.7,4"/>
	<path id="Fill-385" class="st1" d="M202.8,4.1c0-0.1,0.1-0.1,0.1-0.1C202.9,4.1,202.8,4,202.8,4.1"/>
	<path id="Fill-386" class="st1" d="M197.2,4.6c0-0.1,0-0.1,0-0.2c0.1,0,0.1,0,0.2,0c0,0.1-0.1,0.1,0,0.3
		C197.3,4.7,197.3,4.6,197.2,4.6"/>
	<path id="Fill-387" class="st1" d="M197.4,4.5c0-0.1,0.1-0.1,0.1-0.1C197.5,4.5,197.4,4.5,197.4,4.5"/>
	<path id="Fill-388" class="st1" d="M197.6,4.4C197.6,4.4,197.6,4.5,197.6,4.4"/>
	<path id="Fill-389" class="st1" d="M196.7,4.3c0.1,0,0.2,0,0.2,0.2c-0.1,0-0.1,0-0.2,0C196.7,4.5,196.7,4.4,196.7,4.3"/>
	<path id="Fill-390" class="st1" d="M196.9,4.4C196.9,4.4,196.9,4.5,196.9,4.4"/>
	<path id="Fill-391" class="st1" d="M200.7,4.3C200.7,4.2,200.7,4.2,200.7,4.3C200.8,4.3,200.7,4.3,200.7,4.3"/>
	<path id="Fill-392" class="st1" d="M201.4,4.2c0,0.1-0.2,0.1-0.3,0.2C201.1,4.2,201.2,4.2,201.4,4.2"/>
	<path id="Fill-393" class="st1" d="M201.8,4.2C202,3.9,201.9,4.6,201.8,4.2"/>
	<path id="Fill-394" class="st1" d="M201.6,4.1C201.6,4.1,201.6,4.2,201.6,4.1"/>
	<path id="Fill-395" class="st1" d="M201.8,4.2C201.8,4.1,201.8,4.1,201.8,4.2C201.8,4.1,201.8,4.2,201.8,4.2"/>
	<path id="Fill-396" class="st1" d="M202,4.1C201.9,4.2,202,4,202,4.1"/>
	<path id="Fill-397" class="st1" d="M201.4,4.2C201.5,4.1,201.4,4.3,201.4,4.2"/>
	<path id="Fill-398" class="st1" d="M201.8,4.1C201.8,4.3,201.7,4.2,201.8,4.1"/>
	<path id="Fill-399" class="st1" d="M202.3,4.1C202.3,4.2,202.2,4.2,202.3,4.1"/>
	<path id="Fill-400" class="st1" d="M202.5,4.2C202.5,4.1,202.6,4.2,202.5,4.2"/>
	<path id="Fill-401" class="st1" d="M201.9,4.4C201.9,4,201.9,4.7,201.9,4.4"/>
	<path id="Fill-402" class="st1" d="M202.2,4.3C202.3,4,202.3,4.7,202.2,4.3"/>
	<path id="Fill-403" class="st1" d="M203.4,4.4C203.4,4.3,203.5,4.4,203.4,4.4"/>
	<path id="Fill-404" class="st1" d="M203.1,4.5C203,4.4,203.1,4.5,203.1,4.5"/>
	<path id="Fill-405" class="st1" d="M203.3,4.5C203.3,4.4,203.3,4.4,203.3,4.5C203.4,4.5,203.3,4.5,203.3,4.5"/>
	<path id="Fill-406" class="st1" d="M199.6,4.8C199.7,4.4,199.7,5.2,199.6,4.8"/>
	<path id="Fill-407" class="st1" d="M199.7,4.8C199.8,4.4,199.8,5.2,199.7,4.8"/>
	<path id="Fill-408" class="st1" d="M199.4,4.9C199.4,4.8,199.4,4.9,199.4,4.9"/>
	<path id="Fill-409" class="st1" d="M199.8,4.9c0-0.1,0.1-0.1,0.2-0.1C200,4.9,199.9,4.9,199.8,4.9"/>
	<path id="Fill-410" class="st1" d="M200.1,4.8C200.1,4.8,200.1,4.9,200.1,4.8"/>
	<path id="Fill-411" class="st1" d="M200.8,4.8C200.7,4.8,200.8,4.9,200.8,4.8"/>
	<path id="Fill-412" class="st1" d="M202,4.5c0.2,0.2,0.3-0.1,0.5,0c0,0.2-0.2,0.1-0.1,0.2C202.4,4.7,202,4.9,202,4.5"/>
	<path id="Fill-413" class="st1" d="M202.5,4.6C202.5,4.5,202.6,4.6,202.5,4.6"/>
	<path id="Fill-414" class="st1" d="M201.7,4.8C201.8,4.5,201.8,5.2,201.7,4.8"/>
	<path id="Fill-415" class="st1" d="M201.4,4.7h0.1c0,0.1,0,0.1,0,0.2h-0.1C201.4,4.8,201.4,4.7,201.4,4.7"/>
	<path id="Fill-416" class="st1" d="M198.5,5c0-0.2,0.3-0.1,0.4-0.1C198.8,5.1,198.6,4.9,198.5,5"/>
	<path id="Fill-417" class="st1" d="M199.4,4.9C199.3,4.9,199.3,4.8,199.4,4.9"/>
	<path id="Fill-418" class="st1" d="M201.5,4.9C201.5,4.8,201.6,4.9,201.5,4.9"/>
	<path id="Fill-419" class="st1" d="M202.6,4.8C202.6,4.8,202.7,4.9,202.6,4.8"/>
	<path id="Fill-420" class="st1" d="M197.7,5.2c0-0.3,0.2-0.1,0.3-0.2C198,5.4,197.8,4.9,197.7,5.2"/>
	<path id="Fill-421" class="st1" d="M199,5C199,4.9,199.1,4.9,199,5C199.1,5,199.1,5,199,5"/>
	<path id="Fill-422" class="st1" d="M199.3,4.9C199.4,4.9,199.4,4.9,199.3,4.9C199.4,5,199.3,5,199.3,4.9"/>
	<path id="Fill-423" class="st1" d="M202.1,4.9C201.9,5,202,4.6,202.1,4.9"/>
	<path id="Fill-424" class="st1" d="M199,5.1C198.9,5,199,5.1,199,5.1"/>
	<path id="Fill-425" class="st1" d="M199.4,5C199.8,4.8,199.5,5.3,199.4,5"/>
	<path id="Fill-426" class="st1" d="M200,5C200,5,200.1,4.9,200,5C200.1,5,200.1,5,200,5"/>
	<path id="Fill-427" class="st1" d="M200.1,5c0.1-0.1,0.3,0.1,0.5,0c0,0.1-0.1,0.1-0.1,0.3C200.4,4.9,200.1,5.4,200.1,5"/>
	<path id="Fill-428" class="st1" d="M200.8,5C200.8,4.9,200.9,4.9,200.8,5"/>
	<path id="Fill-429" class="st1" d="M200.3,4.8C200.3,4.9,200.3,4.9,200.3,4.8C200.3,4.9,200.3,4.9,200.3,4.8"/>
	<path id="Fill-430" class="st1" d="M202.4,4.9c0-0.1,0.1-0.1,0.1-0.1C202.5,4.9,202.5,4.9,202.4,4.9"/>
	<path id="Fill-431" class="st1" d="M198.3,5.1C198.3,5.1,198.4,5.2,198.3,5.1"/>
	<path id="Fill-432" class="st1" d="M198.4,5.1C198.4,5.1,198.4,5.2,198.4,5.1"/>
	<path id="Fill-433" class="st1" d="M199.7,5.1C199.7,5,199.7,5.1,199.7,5.1"/>
	<path id="Fill-434" class="st1" d="M199.7,5.1c0-0.1,0.1-0.1,0.1-0.1C199.8,5.1,199.8,5.1,199.7,5.1"/>
	<path id="Fill-435" class="st1" d="M200.2,5c-0.1,0.1-0.3,0.2-0.3,0.1C199.9,4.9,200.1,5.1,200.2,5"/>
	<path id="Fill-436" class="st1" d="M200.5,5C200.4,5,200.5,5.1,200.5,5"/>
	<path id="Fill-437" class="st1" d="M200.3,4.9C200.5,4.8,200.3,5.2,200.3,4.9"/>
	<path id="Fill-438" class="st1" d="M199.4,5.1C199.4,5,199.4,5.1,199.4,5.1"/>
	<path id="Fill-439" class="st1" d="M201.6,4.9c0.1,0,0.1,0.2,0.2,0.2C201.7,5.3,201.5,5.1,201.6,4.9"/>
	<path id="Fill-440" class="st1" d="M195.8,5.8c-0.1,0.1,1.3-0.4,1.4-0.1L195.8,5.8"/>
	<path id="Fill-441" class="st1" d="M199,5.3c0-0.1,0.1-0.1,0.1-0.1C199.2,5.3,199.1,5.3,199,5.3"/>
	<path id="Fill-442" class="st1" d="M200.4,5.2C200.4,5.1,200.4,5.2,200.4,5.2"/>
	<path id="Fill-443" class="st1" d="M201.2,5.1C201.1,5,201.2,5.1,201.2,5.1"/>
	<path id="Fill-444" class="st1" d="M201.9,5.1C201.9,5.1,201.9,5.2,201.9,5.1"/>
	<path id="Fill-445" class="st1" d="M202,5.1c0-0.1,0-0.1,0.1-0.1C202.1,5.1,202,5.1,202,5.1"/>
	<path id="Fill-446" class="st1" d="M175.1,6.1C175.1,6.1,175.2,6.2,175.1,6.1"/>
	<path id="Fill-447" class="st1" d="M200.3,5.2C200.3,5.2,200.3,5.3,200.3,5.2"/>
	<path id="Fill-448" class="st1" d="M201.1,5.2C201.1,5.2,201.1,5.3,201.1,5.2"/>
	<path id="Fill-449" class="st1" d="M199.9,5.3c0-0.3,0.2,0,0.2,0.3C200,5.6,200,5.3,199.9,5.3"/>
	<path id="Fill-450" class="st1" d="M200.7,5.3C200.7,4.9,200.7,5.7,200.7,5.3"/>
	<path id="Fill-451" class="st1" d="M200.7,5.3c0-0.1,0.1-0.1,0.1-0.1C200.8,5.3,200.8,5.3,200.7,5.3"/>
	<path id="Fill-452" class="st1" d="M200.2,5.4C200,5.5,200.2,5.1,200.2,5.4"/>
	<path id="Fill-453" class="st1" d="M200.1,5.4c0.1,0,0.1-0.2,0.2,0C200.3,5.5,200.1,5.8,200.1,5.4"/>
	<path id="Fill-454" class="st1" d="M175.2,6.3c0,0,0.1,0,0.2,0c0.1,0.3-0.2,0.1-0.1,0.4C175.1,6.6,175.2,6.4,175.2,6.3"/>
	<path id="Fill-455" class="st1" d="M200.5,5.4c0,0.2-0.1,0.2-0.2,0.2C200.3,5.3,200.4,5.4,200.5,5.4"/>
	<path id="Fill-456" class="st1" d="M200.5,5.4c0.1,0,0.2,0,0.1,0.2h-0.1C200.5,5.5,200.5,5.4,200.5,5.4"/>
	<path id="Fill-457" class="st1" d="M200.8,5.4C200.7,5.4,200.7,5.3,200.8,5.4"/>
	<path id="Fill-458" class="st1" d="M201.3,5.5C201,5.6,201.2,5.1,201.3,5.5"/>
	<path id="Fill-459" class="st1" d="M200.8,5.4C200.8,5.4,200.8,5.5,200.8,5.4"/>
	<path id="Fill-460" class="st1" d="M200.9,5.5c0-0.1,0.1-0.1,0.1-0.1C201,5.5,200.9,5.5,200.9,5.5"/>
	<path id="Fill-461" class="st1" d="M201,5.5c0-0.1,0.1-0.1,0.1-0.1C201.1,5.5,201,5.5,201,5.5"/>
	<path id="Fill-462" class="st1" d="M201.3,5.4C201.2,5.4,201.3,5.5,201.3,5.4"/>
	<path id="Fill-463" class="st1" d="M198.3,5.7c0-0.1,0.1-0.1,0.1,0C198.4,5.7,198.4,5.7,198.3,5.7"/>
	<path id="Fill-464" class="st1" d="M201.8,5.5c0-0.1,0.1-0.1,0.1,0C201.9,5.6,201.9,5.5,201.8,5.5"/>
	<path id="Fill-465" class="st1" d="M199.1,5.8C199.1,5.7,199.1,5.8,199.1,5.8"/>
	<path id="Fill-466" class="st1" d="M199.3,5.7C199.3,5.7,199.4,5.8,199.3,5.7"/>
	<path id="Fill-467" class="st1" d="M199.9,5.6C199.9,5.6,200,5.7,199.9,5.6"/>
	<path id="Fill-468" class="st1" d="M200.5,5.8c0,0.2-0.2,0-0.3,0.1C200.3,5.6,200.3,5.9,200.5,5.8"/>
	<path id="Fill-469" class="st1" d="M200.5,5.8C200.5,5.7,200.6,5.8,200.5,5.8"/>
	<path id="Fill-470" class="st1" d="M200.2,6C200.1,6,200.2,6.1,200.2,6"/>
	<path id="Fill-471" class="st1" d="M200.2,6C200.2,6,200.3,6.1,200.2,6"/>
	<path id="Fill-472" class="st1" d="M200.7,5.9h0.1c0,0.2-0.1,0.2-0.1,0.2C200.6,6,200.7,6,200.7,5.9"/>
	<path id="Fill-473" class="st1" d="M200.8,5.9c0-0.1,0.1-0.1,0.1-0.1C200.9,5.9,200.8,5.9,200.8,5.9"/>
	<path id="Fill-474" class="st1" d="M201.6,5.9C201.5,5.9,201.6,5.8,201.6,5.9"/>
	<path id="Fill-475" class="st1" d="M201.6,5.9C201.7,5.9,201.6,6,201.6,5.9"/>
	<path id="Fill-476" class="st1" d="M200.5,6.1C200.5,6,200.5,6.1,200.5,6.1"/>
	<path id="Fill-477" class="st1" d="M199.5,6.3C199.4,5.8,199.7,6.4,199.5,6.3"/>
	<path id="Fill-478" class="st1" d="M199.6,6.3c0-0.1,0.1-0.1,0.1-0.1C199.7,6.3,199.6,6.2,199.6,6.3"/>
	<path id="Fill-479" class="st1" d="M199.7,6.3C199.7,6.3,199.8,6.3,199.7,6.3c0.1,0.1,0.1,0.1,0.1,0.2h-0.1
		C199.7,6.4,199.7,6.4,199.7,6.3"/>
	<path id="Fill-480" class="st1" d="M200.8,6.3C200.8,6.3,200.8,6.4,200.8,6.3"/>
	<path id="Fill-481" class="st1" d="M201.1,6.3c0.1-0.3,0.1,0.3,0.3,0.1c0,0.2-0.2,0.1-0.3,0.1C201,6.4,201.1,6.4,201.1,6.3
		L201.1,6.3"/>
	<path id="Fill-482" class="st1" d="M201.3,6.2c0.2,0,0.3,0.1,0.4,0c0.2,0.1,0,0.2,0,0.4c-0.1-0.1-0.2-0.1-0.4-0.1
		C201.3,6.4,201.3,6.3,201.3,6.2"/>
	<path id="Fill-483" class="st1" d="M199.5,6.5c0-0.1,0.1-0.1,0.1-0.1C199.7,6.4,199.6,6.4,199.5,6.5"/>
	<path id="Fill-484" class="st1" d="M199.9,6.4c0-0.1,0.1-0.1,0.1-0.1C200,6.4,199.9,6.4,199.9,6.4"/>
	<path id="Fill-485" class="st1" d="M200.2,6.4C200.2,6.4,200.2,6.5,200.2,6.4"/>
	<path id="Fill-486" class="st1" d="M200.4,6.4C200.4,6.3,200.4,6.4,200.4,6.4"/>
	<path id="Fill-487" class="st1" d="M197.7,6.6c0.1,0,0,0.2,0.1,0.3c-0.2-0.1-0.1,0-0.3-0.1C197.5,6.6,197.8,6.9,197.7,6.6"/>
	<path id="Fill-488" class="st1" d="M198.2,6.8c-0.6,0.3-0.8,0-1.5,0.1C197.2,6.5,197.8,6.7,198.2,6.8
		C198.2,6.7,198.2,6.8,198.2,6.8"/>
	<path id="Fill-489" class="st1" d="M200.6,6.4C200.5,6.4,200.6,6.5,200.6,6.4"/>
	<path id="Fill-490" class="st1" d="M200.9,6.4C200.8,6.4,200.9,6.5,200.9,6.4"/>
	<path id="Fill-491" class="st1" d="M201.6,6.4C201.6,6.5,201.5,6.4,201.6,6.4"/>
	<path id="Fill-492" class="st1" d="M198.4,6.7C198.4,6.7,198.4,6.8,198.4,6.7"/>
	<path id="Fill-493" class="st1" d="M200.1,6.8c-0.5,0.2-1,0-1.6,0C199,6.6,199.5,6.6,200.1,6.8"/>
	<path id="Fill-494" class="st1" d="M198.2,6.8C198.6,6.6,198.4,7,198.2,6.8"/>
	<path id="Fill-495" class="st1" d="M200.1,6.8c0.1-0.1,0.2-0.2,0.2-0.1C200.3,6.9,200.2,7,200.1,6.8"/>
	<path id="Fill-496" class="st1" d="M201.3,6.8C201.3,6.7,201.4,6.8,201.3,6.8"/>
	<path id="Fill-497" class="st1" d="M199.7,0.2c0-0.1,0.1-0.1,0.1-0.1C199.8,0.2,199.7,0.2,199.7,0.2"/>
	<path id="Fill-498" class="st1" d="M199.8,0.2c0-0.1,0.1-0.1,0.1-0.1C199.9,0.2,199.9,0.2,199.8,0.2"/>
	<path id="Fill-499" class="st1" d="M199.9,0.2L199.9,0.2"/>
	<path id="Fill-501" class="st1" d="M199.3,0.2C199.2,0.2,199.2,0.1,199.3,0.2"/>
	<path id="Fill-503" class="st1" d="M197,7.2C197,7.1,197,7.1,197,7.2C197.1,7.2,197,7.2,197,7.2"/>
	<path id="Fill-504" class="st1" d="M198.4,0.8c0.1,0.3,0.8,0.3,0.8,0.2C199.2,0.5,198.4,1.2,198.4,0.8"/>
	<path id="Fill-505" class="st1" d="M199.4,0.2C199.4,0.2,199.4,0.3,199.4,0.2"/>
	<path id="Fill-506" class="st1" d="M196.2,7.1C196.4,7,196.2,7.5,196.2,7.1"/>
	<path id="Fill-507" class="st1" d="M196,7.2c0.1,0,0.1,0.1,0.2,0.1C196.2,7.5,196,7.3,196,7.2L196,7.2"/>
	<path id="Fill-508" class="st1" d="M196.9,7.2C196.9,6.8,196.9,7.6,196.9,7.2"/>
	<path id="Fill-509" class="st1" d="M196.5,7.2h0.1c0,0.1,0,0.1,0,0.2h-0.1C196.6,7.3,196.6,7.3,196.5,7.2"/>
	<path id="Fill-510" class="st1" d="M199.3,0.5C199.4,0.1,199.4,0.9,199.3,0.5"/>
	<path id="Fill-511" class="st1" d="M196.5,7.4C196.5,7,196.5,7.7,196.5,7.4"/>
	<path id="Fill-512" class="st1" d="M196.7,7.3C196.6,7.3,196.7,7.4,196.7,7.3"/>
	<path id="Fill-513" class="st1" d="M197,7.4C196.9,7.4,197,7.5,197,7.4"/>
	<path id="Fill-514" class="st1" d="M199.7,0.5C199.7,0.2,199.9,0.6,199.7,0.5"/>
	<path id="Fill-515" class="st1" d="M199.9,0.5C199.9,0.4,199.9,0.5,199.9,0.5"/>
	<path id="Fill-516" class="st1" d="M196.2,7.5c0-0.1,0.2-0.1,0.3-0.2C196.4,7.6,196.2,7.6,196.2,7.5"/>
	<path id="Fill-517" class="st1" d="M199.1,0.6C199.1,0.6,199.1,0.7,199.1,0.6"/>
	<path id="Fill-518" class="st1" d="M199.8,0.6c0-0.1,0.1-0.1,0.1-0.1C199.9,0.6,199.9,0.6,199.8,0.6"/>
	<path id="Fill-519" class="st1" d="M199.8,0.5c0,0.2-0.2,0.2-0.4,0.2C199.4,0.3,199.7,0.5,199.8,0.5"/>
	<path id="Fill-520" class="st1" d="M200.2,0.6L200.2,0.6L200.2,0.6c0,0.1-0.1,0.1-0.2,0.1c0-0.1,0-0.2,0-0.3
		C200.1,0.5,200.3,0.4,200.2,0.6C200.3,0.6,200.2,0.6,200.2,0.6"/>
	<path id="Fill-521" class="st1" d="M198.7,1.3C198.6,1.4,198.6,1.2,198.7,1.3"/>
	<path id="Fill-522" class="st1" d="M199.8,0.5l0.1,0.1c-0.2,0.4,1.1,0,1.3,0.2C201.1,1,200.8,1,200.6,1c-0.4,0-0.8-0.1-1.1,0
		c0.1-0.3,0.3-0.4,0.4-0.3C199.7,0.7,199.8,0.6,199.8,0.5"/>
	<path id="Fill-523" class="st1" d="M200.3,0.6C200.4,0.2,200.4,1,200.3,0.6"/>
	<path id="Fill-524" class="st1" d="M202.1,0.5C202.1,0.4,202.2,0.5,202.1,0.5"/>
	<path id="Fill-525" class="st1" d="M196.6,7.6c0.1,0.1,0.1,0.3,0.2,0.3c0,0.2-0.8-0.1-0.8,0.2C195.9,7.8,196.6,7.8,196.6,7.6"/>
	<path id="Fill-526" class="st1" d="M199.3,0.7C199.3,0.6,199.3,0.7,199.3,0.7"/>
	<path id="Fill-527" class="st1" d="M199.9,0.7c0-0.1,0.1-0.1,0.2-0.1C200.1,0.7,200,0.7,199.9,0.7"/>
	<path id="Fill-528" class="st1" d="M200.5,0.6C200.5,0.6,200.6,0.7,200.5,0.6"/>
	<path id="Fill-529" class="st1" d="M196.4,7.7C196.4,7.6,196.5,7.7,196.4,7.7"/>
	<path id="Fill-530" class="st1" d="M196.1,7.7C196.1,7.7,196.1,7.9,196.1,7.7"/>
	<path id="Fill-531" class="st1" d="M196.3,7.8C196.1,7.9,196.3,7.5,196.3,7.8"/>
	<path id="Fill-532" class="st1" d="M196.5,7.7c0,0.1-0.2,0.6-0.3,0.1C196.3,7.7,196.4,7.7,196.5,7.7"/>
	<path id="Fill-533" class="st1" d="M201.5,0.8c-0.1,0-0.1,0.2-0.1,0.3c-0.2-0.1-0.1-0.5,0.1-0.5C201.5,0.7,201.5,0.8,201.5,0.8"/>
	<path id="Path" class="st0" d="M0,0"/>
	<path id="Path_1_" class="st1" d="M202.3,0.8L202.3,0.8C202.3,0.9,202.3,0.9,202.3,0.8c0,0,0-0.1,0.1-0.1c0.5,0.3,0.8,0,1.1,0.3
		c0,0,0-0.1,0.1-0.2c0.1,0.1,0.1,0.2,0,0.3c-0.5-0.1-0.8,0-1.2,0c0,0.2-0.3,0-0.2-0.1c-0.7,0,0.3-0.1-0.6,0c0-0.2,0.1-0.1,0.1-0.3
		c0.1,0.4,0.5,0.2,0.7,0C203,0.9,201.8,0.9,202.3,0.8C202.2,0.8,202.3,0.8,202.3,0.8z"/>
	<path id="Fill-535" class="st1" d="M202,0.7C202,0.6,202.1,0.6,202,0.7C202.1,0.7,202.1,0.7,202,0.7"/>
	<path id="Fill-536" class="st1" d="M196.9,7.8C196.7,7.9,196.9,7.6,196.9,7.8"/>
	<path id="Fill-537" class="st1" d="M195.9,7.8c-0.1,0.2-0.5,0.2-0.6,0.4c-0.1-0.1-0.2,0-0.2-0.3C195.2,7.8,195.8,7.9,195.9,7.8"/>
	<path id="Fill-538" class="st1" d="M199.2,0.9C199.1,0.9,199.2,1,199.2,0.9"/>
	<path id="Fill-539" class="st1" d="M199.2,1C199.3,0.6,199.3,1.3,199.2,1"/>
	<path id="Fill-540" class="st1" d="M201.4,0.8c0.1,0,0.1,0.1,0.2,0.1c0,0.1-0.1,0.2-0.2,0.2C201.4,1,201.4,0.9,201.4,0.8"/>
	<path id="Fill-541" class="st1" d="M195.5,8C195.7,7.6,195.6,8.3,195.5,8"/>
	<path id="Fill-542" class="st1" d="M199.7,1.1C199.6,0.9,199.7,1,199.7,1.1"/>
	<path id="Fill-543" class="st1" d="M196.4,7.9c0-0.1,0.5-0.1,0.6-0.1C196.9,7.9,196.4,7.9,196.4,7.9"/>
	<path id="Fill-544" class="st1" d="M196.5,8c0-0.3,0.2,0.1,0.1,0.3L196.5,8"/>
	<path id="Fill-545" class="st1" d="M199.2,1.1C199.2,1.1,199.2,1.2,199.2,1.1"/>
	<path id="Fill-546" class="st1" d="M199.4,1.1c0-0.1,0.1-0.1,0.1-0.1C199.5,1.1,199.4,1.1,199.4,1.1"/>
	<path id="Fill-547" class="st1" d="M199.7,1C199.7,1.2,199.6,1.1,199.7,1"/>
	<path id="Fill-548" class="st1" d="M199.5,1.1C199.4,1,199.5,1.1,199.5,1.1"/>
	<path id="Fill-549" class="st1" d="M199.8,1.1c0-0.1,0.1-0.1,0.1-0.1C200,1.1,199.9,1.1,199.8,1.1"/>
	<path id="Fill-550" class="st1" d="M200.3,1C200.3,1,200.4,1.1,200.3,1"/>
	<path id="Fill-551" class="st1" d="M196,7.9c0,0.2-0.1,0.2-0.2,0.2C195.8,7.8,195.9,8,196,7.9"/>
	<path id="Fill-552" class="st1" d="M199.4,1.2c-0.1,0.1-0.2,0.2-0.3,0.2c0-0.1,1-0.2,1-0.2C200.1,1,199.2,1.2,199.4,1.2"/>
	<path id="Fill-553" class="st1" d="M201,1.1C201,1,201.1,1,201,1.1C201.1,1.1,201,1.1,201,1.1"/>
	<path id="Fill-554" class="st1" d="M195.8,8.1C195.8,8,195.8,8,195.8,8.1C195.9,8.1,195.8,8.1,195.8,8.1"/>
	<path id="Fill-555" class="st1" d="M204,3.2C204.1,2.8,204.2,3.5,204,3.2"/>
	<path id="Fill-556" class="st1" d="M200,1.2C200,1.1,200.1,1.2,200,1.2"/>
	<path id="Fill-557" class="st1" d="M201.6,1.1C201.6,1,201.6,1.1,201.6,1.1"/>
	<path id="Fill-558" class="st1" d="M203.7,1.1c0-0.1,0-0.2,0-0.3c0.1,0,0.1,0.1,0.2,0.1C203.9,1.1,203.7,1.3,203.7,1.1"/>
	<path id="Fill-559" class="st1" d="M196.1,8L196.1,8C196.1,8.1,196.1,8.1,196.1,8"/>
	<path id="Fill-560" class="st1" d="M200.4,1.2C200.4,1.2,200.4,1.3,200.4,1.2"/>
	<path id="Fill-561" class="st1" d="M202.4,1.1C202.3,1.1,202.4,1.2,202.4,1.1"/>
	<path id="Fill-562" class="st1" d="M202.5,1.1c0-0.1,0.1-0.1,0.2-0.1C202.6,1.1,202.5,1.1,202.5,1.1"/>
	<path id="Fill-563" class="st1" d="M202.8,1.1C202.7,1.1,202.8,1.2,202.8,1.1"/>
	<path id="Fill-564" class="st1" d="M202.9,1.1C202.9,1,203,1,202.9,1.1C203,1.1,203,1.1,202.9,1.1"/>
	<path id="Fill-565" class="st1" d="M203.9,1C203.8,0.9,203.9,1,203.9,1"/>
	<path id="Fill-566" class="st1" d="M196,8.1C196.1,8.1,196,8.2,196,8.1"/>
	<path id="Fill-567" class="st1" d="M203.5,1.1C203.4,1.1,203.5,1.2,203.5,1.1"/>
	<path id="Fill-568" class="st1" d="M203.6,1.1c0-0.1,0.1-0.1,0.1-0.1C203.7,1.1,203.6,1.1,203.6,1.1"/>
	<path id="Fill-569" class="st1" d="M204,1C204,1,204.1,1.1,204,1"/>
	<path id="Fill-570" class="st1" d="M202.4,1.2c0-0.1,0.1-0.1,0.1-0.1C202.6,1.2,202.5,1.2,202.4,1.2"/>
	<path id="Fill-571" class="st1" d="M203,1.3C203,1.2,203.1,1.3,203,1.3"/>
	<path id="Fill-572" class="st1" d="M204.1,1.1C204,1.1,204.1,1.2,204.1,1.1"/>
	<path id="Fill-573" class="st0" d="M0,0"/>
	<path id="Fill-574" class="st1" d="M191.6,12.6C191.6,12.7,191.6,12.7,191.6,12.6"/>
	<path id="Fill-575" class="st1" d="M191.4,12.7C191.4,12.7,191.4,12.8,191.4,12.7"/>
	<path id="Fill-576" class="st1" d="M191.5,12.8c0-0.1,0.1-0.1,0.1-0.1C191.6,12.8,191.5,12.7,191.5,12.8"/>
	<path id="Fill-577" class="st1" d="M189.3,12.5C189.5,12.1,189.5,12.7,189.3,12.5"/>
	<path id="Fill-578" class="st1" d="M190.2,12.4c0-0.2,0-0.1,0,0.1C190.1,12.5,190.3,12.4,190.2,12.4"/>
	<path id="Fill-579" class="st1" d="M191.3,12.2C191.4,12.2,191.3,12.4,191.3,12.2"/>
	<path id="Fill-580" class="st1" d="M192,12.8C191.9,12.7,192,12.8,192,12.8"/>
	<path id="Fill-581" class="st1" d="M189.1,12.5C189.1,12.5,189.2,12.6,189.1,12.5"/>
	<path id="Fill-582" class="st1" d="M190,12.5C190,12.1,190,12.9,190,12.5"/>
	<path id="Fill-583" class="st1" d="M188.7,12.6C188.6,12.5,188.7,12.6,188.7,12.6"/>
	<path id="Fill-584" class="st1" d="M190.4,12.6C190.3,12.6,190.4,12.7,190.4,12.6"/>
</g>
</svg>
