<svg width="240" height="234" viewBox="0 0 240 234" fill="none" xmlns="http://www.w3.org/2000/svg">
<g clip-path="url(#clip0_1_45)">
<path d="M42.5 -1.16568e-05H197.5C203.083 -0.00527336 208.612 1.09043 213.77 3.22439C218.929 5.35835 223.616 8.48868 227.564 12.4362C231.511 16.3838 234.642 21.071 236.776 26.2297C238.91 31.3884 240.005 36.9173 240 42.5V191.5C240.005 197.083 238.91 202.612 236.776 207.77C234.642 212.929 231.511 217.616 227.564 221.564C223.616 225.511 218.929 228.642 213.77 230.776C208.612 232.91 203.083 234.005 197.5 234H42.5C36.9174 234.005 31.3885 232.91 26.2297 230.776C21.071 228.642 16.3838 225.511 12.4362 221.564C8.48871 217.616 5.35838 212.929 3.22442 207.77C1.09046 202.612 -0.00524284 197.083 1.88608e-05 191.5V42.5C-0.00524284 36.9173 1.09046 31.3884 3.22442 26.2297C5.35838 21.071 8.48871 16.3838 12.4362 12.4362C16.3838 8.48868 21.071 5.35835 26.2297 3.22439C31.3885 1.09043 36.9174 -0.00527336 42.5 -1.16568e-05V-1.16568e-05Z" fill="#FF3366"/>
<path fill-rule="evenodd" clip-rule="evenodd" d="M95.0975 71.8733C95.0975 65.1401 89.5917 60 83.0187 60C76.4461 60 70.9403 65.1401 70.9403 71.8733C70.9403 78.6116 76.4461 83.7522 83.0187 83.7522C89.5917 83.7522 95.0975 78.6116 95.0975 71.8733ZM145.712 156.425C145.712 166.355 151.572 173.619 163.829 173.619C174.31 173.619 182.658 166.886 187.276 150.755L179.462 147.744C175.554 158.551 172.178 160.506 169.515 160.506C166.85 160.506 165.427 158.735 165.427 155.192C165.427 153.597 165.785 151.828 166.316 149.696L172.001 129.323C173.422 124.539 173.955 120.303 173.955 116.405C173.955 101.162 164.718 93.2234 153.527 93.2234C143.048 93.2234 132.389 102.69 127.061 112.618L130.968 94.8681H100.593L96.3298 110.609H110.54L101.79 145.488C94.9175 160.731 82.2941 160.896 80.7103 160.542C78.1092 159.956 76.4461 158.988 76.4461 155.616C76.4461 153.669 76.8009 150.908 77.6891 147.537L91.0128 94.8681H57.2632L53 110.609H67.0318L57.9728 147.427C57.2632 150.441 56.907 153.584 56.907 156.238C56.907 166.698 62.5909 173.602 74.6698 173.602C84.6892 173.602 92.8101 167.585 98.6572 157.999L95.0868 172.139H114.981L126.35 126.795C129.191 115.272 134.697 109.453 143.047 109.453C149.62 109.453 153.705 113.532 153.705 120.265C153.705 122.216 153.527 124.341 152.817 126.646L146.954 147.562C146.066 150.576 145.712 153.592 145.712 156.425Z" fill="white"/>
</g>
<defs>
<clipPath id="clip0_1_45">
<rect width="240" height="234" fill="white"/>
</clipPath>
</defs>
</svg>
