<svg width="301" height="107" viewBox="0 0 301 107" fill="none" xmlns="http://www.w3.org/2000/svg">
<path d="M106.965 64.7773C108.948 65.9825 110.751 66.7861 113.185 66.7861C116.52 66.7861 117.602 65.0987 117.602 61.1615V43.4038H124.273V61.8846C124.273 69.1163 120.487 72.25 113.726 72.25C111.022 72.25 108.317 71.4464 106.965 70.6429V64.7773H106.965Z" fill="white"/>
<path d="M143.964 43.4038L148.652 62.7708L153.184 43.4038H158.888L151.699 72.25H146.464L141.62 53.2099L136.775 72.25H131.462L124.273 43.4038H130.133L134.587 62.7708L139.432 43.4038H143.964Z" fill="white"/>
<path fill-rule="evenodd" clip-rule="evenodd" d="M168.321 72.25V60.7278H175.242C181.023 60.7278 184.85 57.7043 184.85 52.0658C184.85 46.3456 181.023 43.4038 175.242 43.4038H164.657V72.25H168.321ZM168.403 46.7542H175.242C179.069 46.7542 181.186 48.7971 181.267 52.2293C181.267 55.4162 179.15 57.5409 175.242 57.5409H168.403V46.7542Z" fill="white"/>
<path d="M190.619 43.4038H194.08V68.8996H207.927V72.25H190.619V43.4038Z" fill="white"/>
<path fill-rule="evenodd" clip-rule="evenodd" d="M231.004 72.25L219.737 43.4038H216.308L205.042 72.25H208.797L212.063 63.5879H223.901L227.248 72.25H231.004ZM222.676 60.3193H213.288L218.023 47.98L222.676 60.3193Z" fill="white"/>
<path d="M247.516 43.4038H251.196L241.306 60.3193V72.25H237.856V60.3193L228.119 43.4038H231.876L239.696 57.0506L247.516 43.4038Z" fill="white"/>
<path d="M274.273 43.4038V46.6725H260.365V55.8248H273.037V59.0935H260.365V68.8996H274.273V72.25H256.965V43.4038H274.273Z" fill="white"/>
<path fill-rule="evenodd" clip-rule="evenodd" d="M283.523 72.25V60.0741V59.9924H288.397L296.211 72.1682H300.234L292.111 59.829C296.443 59.1752 299.074 56.5603 299.074 51.739C299.074 46.3456 295.515 43.4038 290.022 43.4038H280.042V72.25H283.523ZM289.945 56.9689H283.523V46.6725H289.945C293.581 46.6725 295.67 48.6337 295.67 51.8207C295.67 55.0076 293.581 56.9689 289.945 56.9689Z" fill="white"/>
<path d="M9.23874 54.9603C9.0022 55.842 8.60797 55.842 8.37143 54.9603L7.97719 53.4375C7.97719 53.4375 7.42526 51.1933 6.4791 48.6285C6.16371 47.827 5.92717 46.8652 5.29639 46.224C4.50792 45.3424 3.24637 45.0218 2.14251 45.4225C1.1175 45.8233 0.32903 46.7851 0.250183 47.9072C0.171336 48.869 0.407877 49.9109 0.486724 50.7925C0.880959 53.6779 2.93098 65.0591 4.19253 67.5438C5.45409 69.9483 8.13488 71.3108 10.658 69.9483C13.0234 68.6659 14.1273 65.7003 15.0734 63.376C16.2561 60.4105 22.3273 43.4188 22.3273 43.4188C22.9581 41.7357 23.4312 41.8158 23.3524 43.5791C23.3524 43.5791 23.037 60.2502 23.037 67.7842C23.037 70.5895 23.2735 75.719 24.062 78.4441C24.6139 80.2875 25.4812 81.9707 26.9793 83.0928C28.3986 84.2148 30.2909 84.6957 32.0255 84.5354C32.6563 84.4553 33.839 84.1347 34.5486 83.6538C35.6525 83.0126 36.5987 82.0508 37.3871 81.089C39.2006 78.7647 40.541 76.0396 41.8814 73.3947C44.7987 67.5438 52.3681 49.43 52.3681 49.43C53.0777 47.7469 53.5508 47.9072 53.5508 49.6705C53.5508 49.6705 52.6046 80.1272 52.6046 91.7489C52.6046 94.6343 53.1565 97.5196 54.1815 100.245C55.1277 102.729 56.8623 104.974 59.3854 106.096C61.9874 107.298 65.1413 107.057 67.5855 105.615C69.5567 104.493 70.976 102.729 72.1587 100.806C73.7356 98.1608 74.9183 95.2755 76.0222 92.3901C78.3087 86.3789 80.2011 80.2875 82.0934 74.116C83.9857 68.0247 99.9916 9.83621 101.017 4.86695C101.096 4.3059 101.253 3.74486 101.174 3.18381C101.017 2.06172 100.307 0.93963 99.282 0.458734C97.4685 -0.34276 95.4185 0.378585 94.5512 2.22202C93.6839 4.06546 71.7644 57.9258 71.7644 57.9258C71.0548 59.609 70.5817 59.4487 70.5817 57.6854C70.5817 57.6854 70.6606 38.9304 70.7394 23.4616C70.8183 15.0459 66.7182 10.3171 60.9624 9.35532C58.2816 8.95457 55.6008 9.59576 53.3931 11.0385C51.0277 12.6414 49.293 14.9658 48.0315 17.5306C46.2968 20.977 35.5736 52.7161 35.5736 52.7161C35.0217 54.3993 34.4698 54.3191 34.4698 52.5558C34.4698 52.5558 34.1544 38.8503 33.839 35.6443C33.3659 30.6751 32.2621 22.58 25.9543 22.1792C20.0408 21.7785 17.36 29.2324 15.8619 33.8009C14.8369 36.8466 9.94837 53.2772 9.94837 53.2772L9.23874 54.9603Z" fill="white"/>
</svg>
