<svg width="77" height="16" viewBox="0 0 77 16" fill="none" xmlns="http://www.w3.org/2000/svg">
<path d="M0.563191 0C0.172918 0 -0.0988443 0.387607 0.034184 0.754507L3.41623 10.0824C3.49695 10.305 3.70842 10.4533 3.94523 10.4533H10.459C10.8493 10.4533 11.121 10.0657 10.988 9.6988L7.60596 0.370901C7.52524 0.148268 7.31377 0 7.07696 0H0.563191Z" fill="white"/>
<path d="M10.2375 15.6794C9.84639 15.6794 9.57457 15.2902 9.70924 14.9229L12.1718 8.20836C12.253 7.98673 12.464 7.8394 12.7 7.8394H19.2122C19.6034 7.8394 19.8752 8.22862 19.7405 8.59585L17.278 15.3104C17.1967 15.5321 16.9858 15.6794 16.7497 15.6794H10.2375Z" fill="white"/>
<path d="M38.4859 15.7525V14.3122H31.3958V7.14438e-06H29.8652V15.7525H38.4859Z" fill="white"/>
<path d="M41.7893 15.7525V5.49086H40.3262V15.7525H41.7893Z" fill="white"/>
<path d="M48.4204 14.5598C47.25 14.5598 46.6197 14.0872 46.6197 12.1294V6.75106H49.4558V5.49086H46.6197V2.09283H45.1792V5.49086H43.1985V6.75106H45.1792V12.3994C45.1792 13.9072 45.5619 14.9198 46.2146 15.3474C46.8448 15.7975 47.34 15.8875 48.1278 15.8875C48.848 15.8875 49.4108 15.82 49.7934 15.7075V14.4023C49.4108 14.5148 48.9381 14.5598 48.4204 14.5598Z" fill="white"/>
<path d="M56.7192 5.22082C54.7385 5.22082 53.3655 6.25598 52.8928 7.85373V5.49086H52.8703V7.14438e-06H51.4298V15.7525H52.8928V10.5317C52.8928 8.07877 54.0633 6.50352 56.2466 6.50352C58.2048 6.50352 59.1726 7.71871 59.1726 10.1491V15.7525H60.6131V9.564C60.6131 6.75106 59.3077 5.22082 56.7192 5.22082Z" fill="white"/>
<path d="M64.6738 15.7525V5.49086H63.2107V15.7525H64.6738Z" fill="white"/>
<path d="M71.575 16C74.2534 16 76.0316 14.5823 76.2792 12.3319H74.8161C74.546 13.8622 73.3756 14.6723 71.5525 14.6723C69.3242 14.6723 67.9286 13.1196 67.9286 10.6217C67.9286 8.12378 69.3242 6.57103 71.5525 6.57103C73.3756 6.57103 74.546 7.42617 74.8161 8.97891H76.2792C76.0316 6.70606 74.2534 5.26583 71.575 5.26583C70.0219 5.26583 68.784 5.76091 67.8611 6.72856C66.9383 7.71871 66.4656 9.02392 66.4656 10.6217C66.4656 12.2194 66.9383 13.5246 67.8611 14.5148C68.784 15.5049 70.0219 16 71.575 16Z" fill="white"/>
<path d="M42.2447 2.25082C42.2447 2.87237 41.7409 3.37623 41.1193 3.37623C40.4978 3.37623 39.9939 2.87237 39.9939 2.25082C39.9939 1.62928 40.4978 1.12542 41.1193 1.12542C41.7409 1.12542 42.2447 1.62928 42.2447 2.25082Z" fill="white"/>
<path d="M65.0342 2.25082C65.0342 2.87237 64.5304 3.37623 63.9088 3.37623C63.2873 3.37623 62.7834 2.87237 62.7834 2.25082C62.7834 1.62928 63.2873 1.12542 63.9088 1.12542C64.5304 1.12542 65.0342 1.62928 65.0342 2.25082Z" fill="white"/>
</svg>
