<svg width="240" height="234" viewBox="0 0 240 234" fill="none" xmlns="http://www.w3.org/2000/svg">
<g clip-path="url(#clip0_1_10)">
<path d="M197.5 0.999989L197.501 0.999988C202.952 0.99485 208.351 2.06475 213.388 4.14845C218.425 6.23215 223.002 9.28876 226.857 13.1433C230.711 16.9979 233.768 21.5748 235.852 26.612C237.935 31.6492 239.005 37.0479 239 42.499V42.5V191.5V191.501C239.005 196.952 237.935 202.351 235.852 207.388C233.768 212.425 230.711 217.002 226.857 220.857C223.002 224.711 218.425 227.768 213.388 229.852C208.351 231.935 202.952 233.005 197.501 233H197.5H42.5H42.4991C37.0479 233.005 31.6492 231.935 26.612 229.852C21.5748 227.768 16.9979 224.711 13.1434 220.857C9.28879 217.002 6.23218 212.425 4.14848 207.388C2.06478 202.351 0.994881 196.952 1.00002 191.501V191.5L1.00002 42.5L1.00002 42.499C0.994881 37.0479 2.06478 31.6492 4.14848 26.612C6.23218 21.5748 9.28879 16.9979 13.1434 13.1433C16.9979 9.28876 21.5748 6.23215 26.612 4.14845C31.6492 2.06475 37.0479 0.99485 42.4991 0.999988H42.5L197.5 0.999989Z" fill="#000B1D" stroke="#0C1E3C" stroke-width="2"/>
<g clip-path="url(#clip1_1_10)">
<path d="M119.5 132.227C127.622 132.227 134.207 125.41 134.207 117C134.207 108.59 127.622 101.773 119.5 101.773C111.378 101.773 104.793 108.59 104.793 117C104.793 125.41 111.378 132.227 119.5 132.227Z" fill="#61DAFB"/>
<path d="M119.5 148.197C163.082 148.197 198.413 134.23 198.413 117C198.413 99.7703 163.082 85.803 119.5 85.803C75.9175 85.803 40.587 99.7703 40.587 117C40.587 134.23 75.9175 148.197 119.5 148.197Z" stroke="#61DAFB" stroke-width="5"/>
<path d="M93.4063 132.599C115.198 171.678 144.545 196.375 158.957 187.76C173.368 179.145 167.385 140.481 145.594 101.401C123.802 62.3219 94.4546 37.6253 80.0435 46.2401C65.6323 54.8549 71.615 93.5189 93.4063 132.599Z" stroke="#61DAFB" stroke-width="5"/>
<path d="M93.4063 101.401C71.6151 140.481 65.6323 179.145 80.0435 187.76C94.4547 196.375 123.802 171.678 145.594 132.599C167.385 93.5189 173.368 54.8549 158.957 46.2401C144.545 37.6252 115.198 62.3218 93.4063 101.401Z" stroke="#61DAFB" stroke-width="5"/>
</g>
</g>
<defs>
<clipPath id="clip0_1_10">
<rect width="240" height="234" fill="white"/>
</clipPath>
<clipPath id="clip1_1_10">
<rect width="165" height="152" fill="white" transform="translate(37 41)"/>
</clipPath>
</defs>
</svg>
